<svg xmlns="http://www.w3.org/2000/svg" xmlns:xlink="http://www.w3.org/1999/xlink" width="223.817" height="485" viewBox="0 0 223.817 485"><defs><style>.a{fill:url(#a);}.b{fill:#eceeee;}.c{opacity:0.82;fill:url(#b);}.d{fill:url(#c);}</style><linearGradient id="a" x1="0.5" y1="0.22" x2="0.52" y2="-1.538" gradientUnits="objectBoundingBox"><stop offset="0" stop-color="#fff"/><stop offset="1" stop-color="#2998ff"/></linearGradient><linearGradient id="b" x1="1.104" y1="0.074" x2="0.164" y2="0.584" gradientUnits="objectBoundingBox"><stop offset="0" stop-color="#2998ff"/><stop offset="1" stop-color="#c5e3ff"/></linearGradient><linearGradient id="c" x1="0.686" y1="0.357" x2="0.164" y2="0.584" gradientUnits="objectBoundingBox"><stop offset="0" stop-color="#80c2ff"/><stop offset="1" stop-color="#e4f2ff" stop-opacity="0.702"/></linearGradient></defs><g transform="translate(-158.194 -592.5)"><path class="a" d="M4,478H208c2.209,0,4-3.159,4-7.055V7.055C212,3.159,210.209,0,208,0H4C1.791,0,0,3.159,0,7.055V470.945C0,474.841,1.791,478,4,478Z" transform="translate(158.194 599.5)"/><path class="b" d="M5641.41,2583h24.671a3.817,3.817,0,0,1,3.1,3.62l.016,34.106-11.927-13.485-15.857-22.5Z" transform="translate(-5299.216 -1983.5)"/><g transform="translate(334.229 599.5)"><path class="c" d="M5640.751,2583s-.632,16.788-7.523,23.292c5.253-1.442,34.812,10.579,35.768,14.484.346-5.175-5.348-19.718-10.908-25.932S5640.751,2583,5640.751,2583Z" transform="translate(-5633.229 -2578)"/><path class="d" d="M5640.751,2583s-.632,16.788-7.523,23.292c5.253-1.442,34.812,10.579,35.768,14.484.346-5.175-5.348-19.718-10.908-25.932S5640.751,2583,5640.751,2583Z" transform="translate(-5633.229 -2583)"/></g></g></svg>