<svg xmlns="http://www.w3.org/2000/svg" width="14" height="14" viewBox="0 0 14 14"><defs><style>.a{fill:none;}.b{fill:#afb6b6;}</style></defs><g transform="translate(-757 -1662)"><g transform="translate(22)"><rect class="a" width="14" height="14" transform="translate(735 1662)"/></g><path class="b" d="M92.284,105.445a.869.869,0,0,0,1.206-.294.891.891,0,0,0,.1-.661l-.535-2.283a.151.151,0,0,1,.046-.148l1.752-1.527a.889.889,0,0,0,.095-1.241.871.871,0,0,0-.6-.308l-2.3-.187a.138.138,0,0,1-.116-.087l-.886-2.167a.871.871,0,0,0-1.616,0l-.886,2.167a.138.138,0,0,1-.116.088l-2.3.187a.886.886,0,0,0-.5,1.549l1.752,1.527a.151.151,0,0,1,.046.148l-.535,2.283a.883.883,0,0,0,.646,1.062.867.867,0,0,0,.662-.106l1.969-1.223a.13.13,0,0,1,.138,0l1.969,1.223Z" transform="translate(673.754 1568.222)"/></g></svg>