<svg xmlns="http://www.w3.org/2000/svg" width="14" height="14" viewBox="0 0 14 14"><defs><style>.a{fill:none;}.b{fill:#afb6b6;}</style></defs><g transform="translate(-757 -1662)"><g transform="translate(22)"><rect class="a" width="14" height="14" transform="translate(735 1662)"/></g><path class="b" d="M88.714,126.639a2.688,2.688,0,0,0-.588-.856A2.748,2.748,0,0,0,86.2,125a2.761,2.761,0,0,0-1.439.4,2.7,2.7,0,0,0-.295.208,2.7,2.7,0,0,0-.295-.208,2.772,2.772,0,0,0-2.5-.193,2.727,2.727,0,0,0-.868.574A2.668,2.668,0,0,0,80,127.693a2.991,2.991,0,0,0,.21,1.068,4.783,4.783,0,0,0,.5.941,9.067,9.067,0,0,0,1.384,1.567,15.473,15.473,0,0,0,1.949,1.523l.245.157a.332.332,0,0,0,.357,0l.245-.157a15.672,15.672,0,0,0,1.949-1.523,9.067,9.067,0,0,0,1.384-1.567,4.728,4.728,0,0,0,.5-.941,2.991,2.991,0,0,0,.21-1.068A2.632,2.632,0,0,0,88.714,126.639Z" transform="translate(679.535 1540)"/></g></svg>