<svg xmlns="http://www.w3.org/2000/svg" xmlns:xlink="http://www.w3.org/1999/xlink" width="55.094" height="13.398" viewBox="0 0 55.094 13.398"><defs><style>.a{fill:url(#a);}</style><linearGradient id="a" x1="0.5" x2="0.5" y2="1" gradientUnits="objectBoundingBox"><stop offset="0" stop-color="#727fff"/><stop offset="1" stop-color="#5869ff"/></linearGradient></defs><g transform="translate(-3409.875 -16313)"><g transform="translate(3409.875 16313)"><path class="a" d="M616.583,615.32,616,618.928H608.85l-.115.7h7.519l-.718,4.4h-9.359l1.421-8.712h-1.466l.471-2.89h5.119l-.075-1.035,1.983-.086.061,1.121h4.931l-.471,2.89Zm-8.325-1.222-.129.791h8.18l.128-.791Zm.849,3.249h5.276l.147-.906h-5.275Zm4.836,5.161.216-1.323h-5.677l-.216,1.323Z" transform="translate(-606.132 -611.05)"/><path class="a" d="M630.37,614.716h-7q-.2,1.035-.291,1.439h5.664l-1.253,5.476a3.706,3.706,0,0,1-.576,1.373,1.954,1.954,0,0,1-.921.669,6.169,6.169,0,0,1-1.568.273l-1.368.1-.3-1.783,1.294-.086a4.842,4.842,0,0,0,.97-.137.842.842,0,0,0,.477-.323,2.083,2.083,0,0,0,.268-.719l.73-3.062h-3.867a10.567,10.567,0,0,1-1.777,3.486,16.338,16.338,0,0,1-3.324,3.026l-1.091-1.509a15.058,15.058,0,0,0,2.439-1.955,7.626,7.626,0,0,0,1.428-2.056,14.312,14.312,0,0,0,.938-2.889q.178-.733.288-1.323h-3.177l.294-1.8h5.1l-.113-1.509,1.985-.1c.046.431.077.968.1,1.61h4.945Z" transform="translate(-604.092 -611.05)"/><path class="a" d="M633.727,611.451l-.365,2.243h1.107l-.272,1.668h-1.107l-.272,1.668.321-.115.334-.115q.214-.072.352-.129l-.085.791-.086.877-1.11.374-.574,3.522a3.645,3.645,0,0,1-.322,1.094,1.318,1.318,0,0,1-.589.574,3.256,3.256,0,0,1-1.055.259l-.879.1-.253-1.625.781-.115a.85.85,0,0,0,.531-.216,1.158,1.158,0,0,0,.2-.546l.408-2.5-1.616.476-.08-1.626q.519-.1,1.968-.518l.363-2.228h-1.538l.272-1.668h1.538l.375-2.3Zm6.281,12.795a14.3,14.3,0,0,1-2.276-1.912,20.957,20.957,0,0,1-2.376,1.61l-.5-.891-.192,1.179h-1.64l2.045-12.535h7.059q-.131.631-.323,1.408t-.311,1.251a2.113,2.113,0,0,1-.707,1.157,2.606,2.606,0,0,1-1.4.41l-1.538.086-.226-1.524,1.308-.086a1.5,1.5,0,0,0,.672-.151.622.622,0,0,0,.262-.381l.157-.518h-3.58l-.49,3h5.592l-.246,1.51a11.621,11.621,0,0,1-2.213,3.249,14.122,14.122,0,0,0,2.143,1.668Zm-5.024-1.984a18.43,18.43,0,0,0,1.811-1.15,8.525,8.525,0,0,1-1.07-3.22H635.7Zm4.622-4.37h-2.213a5.285,5.285,0,0,0,.755,2.07A8.4,8.4,0,0,0,639.605,617.891Z" transform="translate(-601.63 -611.034)"/><path class="a" d="M650.716,611.093a8.248,8.248,0,0,0,1.374,2.947,8.161,8.161,0,0,0,2.319,2.171l-1.29,1.567a11.775,11.775,0,0,1-2.19-2.128,7.455,7.455,0,0,1-1.206-2.343,16.579,16.579,0,0,1-1.36,1.768,14.882,14.882,0,0,1-1.693,1.61l1.569.072-.277,1.7a13.411,13.411,0,0,1-.577,2.394,6.4,6.4,0,0,1-.931,1.7,12.039,12.039,0,0,1-1.7,1.725l-1.21-1.136a8.007,8.007,0,0,0,1.488-1.323,4.251,4.251,0,0,0,.76-1.351,12.724,12.724,0,0,0,.453-1.984l.272-1.668q-.446.359-1.293.963l-.819-1.409-1.269,7.777h-1.682l1.018-6.239c-.241.3-.577.686-1.01,1.164l-.9-1.51a22.938,22.938,0,0,0,2.337-2.911,17.827,17.827,0,0,0,1.866-3.385l1.586.5a30.465,30.465,0,0,1-1.7,3.134l-.224,1.38a14.221,14.221,0,0,0,4.943-5.19Zm-.169,12.938h-1.7l1.2-7.375,1.684.072Z" transform="translate(-599.315 -611.093)"/></g></g></svg>