<svg xmlns="http://www.w3.org/2000/svg" width="60" height="16" viewBox="0 0 60 16"><defs><style>.a{fill:#fff;opacity:0;}.b{fill:#edf2f2;}.c{fill:#3d4242;}</style></defs><g transform="translate(-259 -610)"><path class="a" d="M0,0H60V16H0Z" transform="translate(259 610)"/><g transform="translate(-345.776 -43.018)"><path class="b" d="M617.478,655.785l-1.2,11.576h-10.5l1.2-11.576h3.48c.159-.378.341-.841.549-1.389l2.232.075-.555,1.314Zm-9.491,8.258-.159,1.525h6.782l.158-1.525Zm6.969-1.807.148-1.433h-6.781l-.148,1.433Zm.335-3.225.144-1.39h-6.781l-.144,1.39Z" transform="translate(0 0.062)"/><path class="b" d="M630.407,657.387h-7.289c-.179.29-.391.593-.632.911h6.587l-.764,7.349a2.893,2.893,0,0,1-.325,1.18,1.375,1.375,0,0,1-.7.584,4.946,4.946,0,0,1-1.288.253l-1.026.091-.448-1.718,1.115-.106a1.421,1.421,0,0,0,.49-.111.484.484,0,0,0,.229-.27,3,3,0,0,0,.129-.591h-5.572l-.278,2.676h-1.867l.622-5.991q-.816.689-1.689,1.314l-.968-1.613a17.136,17.136,0,0,0,4.221-3.958h-2.927l.178-1.716h3.883a13.97,13.97,0,0,0,.732-1.419l1.907.327q-.319.629-.578,1.092h6.438Zm-3.659,5.034h-5.571l-.1.986h5.572Zm-5.412-1.537h5.571l.1-.956h-5.571Z" transform="translate(2.681 0.026)"/><path class="b" d="M633.178,654.5l-.241,2.329h1.15l-.179,1.734h-1.151l-.18,1.731.326-.119.342-.119c.143-.05.264-.095.356-.133l-.04.821-.035.91-1.13.388-.381,3.659a3.6,3.6,0,0,1-.266,1.135,1.243,1.243,0,0,1-.578.6,3.267,3.267,0,0,1-1.082.27l-.906.1-.362-1.689.8-.12a.829.829,0,0,0,.538-.223,1.14,1.14,0,0,0,.171-.568l.27-2.6-1.649.492-.183-1.687c.356-.071,1.027-.249,2.013-.539l.241-2.314h-1.6l.18-1.734h1.6l.249-2.39Zm7.313,13.293a16.216,16.216,0,0,1-2.483-1.988,19.557,19.557,0,0,1-2.369,1.673l-.576-.926-.127,1.225h-1.7l1.353-13.024h7.334c-.065.439-.148.926-.248,1.464s-.184.971-.248,1.3a2.04,2.04,0,0,1-.663,1.2,2.606,2.606,0,0,1-1.434.426l-1.591.09-.33-1.584,1.354-.09a1.473,1.473,0,0,0,.688-.157.593.593,0,0,0,.25-.4l.131-.538h-3.719l-.324,3.122h5.81l-.164,1.57a11.1,11.1,0,0,1-2.1,3.376,16.131,16.131,0,0,0,2.33,1.731Zm-5.342-2.061a18.024,18.024,0,0,0,1.811-1.195,9.406,9.406,0,0,1-1.311-3.347h-.029Zm4.534-4.542h-2.3a5.837,5.837,0,0,0,.911,2.151A8.039,8.039,0,0,0,639.683,661.194Z" transform="translate(5.626 0.073)"/><path class="b" d="M650.4,654.144a9.519,9.519,0,0,0,4.152,5.316l-1.245,1.629a13.443,13.443,0,0,1-2.406-2.211,8.359,8.359,0,0,1-1.4-2.436,15.866,15.866,0,0,1-1.3,1.837,14.258,14.258,0,0,1-1.659,1.674l1.634.073-.183,1.764a13.4,13.4,0,0,1-.454,2.487,6.135,6.135,0,0,1-.863,1.77,11.4,11.4,0,0,1-1.657,1.791l-1.327-1.18a7.625,7.625,0,0,0,1.465-1.373,4.105,4.105,0,0,0,.706-1.405,12.838,12.838,0,0,0,.35-2.061l.179-1.732q-.442.373-1.284,1l-.938-1.465-.839,8.08h-1.749l.675-6.482c-.23.31-.556.712-.977,1.211l-1.032-1.568a21.813,21.813,0,0,0,2.249-3.026,17.318,17.318,0,0,0,1.733-3.516l1.678.521a29.673,29.673,0,0,1-1.578,3.256l-.149,1.435A13.578,13.578,0,0,0,649,654.144Zm.62,13.441h-1.762l.8-7.662,1.755.076Z" transform="translate(8.434)"/></g><g transform="translate(-346.776 -43.015)"><path class="c" d="M617.478,655.785l-1.2,11.576h-10.5l1.2-11.576h3.48c.159-.378.341-.841.549-1.389l2.232.075-.555,1.314Zm-9.491,8.258-.159,1.525h6.782l.158-1.525Zm6.969-1.807.148-1.433h-6.781l-.148,1.433Zm.335-3.225.144-1.39h-6.781l-.144,1.39Z" transform="translate(0 0.062)"/><path class="c" d="M630.407,657.387h-7.289c-.179.29-.391.593-.632.911h6.587l-.764,7.349a2.893,2.893,0,0,1-.325,1.18,1.375,1.375,0,0,1-.7.584,4.946,4.946,0,0,1-1.288.253l-1.026.091-.448-1.718,1.115-.106a1.421,1.421,0,0,0,.49-.111.484.484,0,0,0,.229-.27,3,3,0,0,0,.129-.591h-5.572l-.278,2.676h-1.867l.622-5.991q-.816.689-1.689,1.314l-.968-1.613a17.136,17.136,0,0,0,4.221-3.958h-2.927l.178-1.716h3.883a13.97,13.97,0,0,0,.732-1.419l1.907.327q-.319.629-.578,1.092h6.438Zm-3.659,5.034h-5.571l-.1.986h5.572Zm-5.412-1.537h5.571l.1-.956h-5.571Z" transform="translate(2.681 0.026)"/><path class="c" d="M633.178,654.5l-.241,2.329h1.15l-.179,1.734h-1.151l-.18,1.731.326-.119.342-.119c.143-.05.264-.095.356-.133l-.04.821-.035.91-1.13.388-.381,3.659a3.6,3.6,0,0,1-.266,1.135,1.243,1.243,0,0,1-.578.6,3.267,3.267,0,0,1-1.082.27l-.906.1-.362-1.689.8-.12a.829.829,0,0,0,.538-.223,1.14,1.14,0,0,0,.171-.568l.27-2.6-1.649.492-.183-1.687c.356-.071,1.027-.249,2.013-.539l.241-2.314h-1.6l.18-1.734h1.6l.249-2.39Zm7.313,13.293a16.216,16.216,0,0,1-2.483-1.988,19.557,19.557,0,0,1-2.369,1.673l-.576-.926-.127,1.225h-1.7l1.353-13.024h7.334c-.065.439-.148.926-.248,1.464s-.184.971-.248,1.3a2.04,2.04,0,0,1-.663,1.2,2.606,2.606,0,0,1-1.434.426l-1.591.09-.33-1.584,1.354-.09a1.473,1.473,0,0,0,.688-.157.593.593,0,0,0,.25-.4l.131-.538h-3.719l-.324,3.122h5.81l-.164,1.57a11.1,11.1,0,0,1-2.1,3.376,16.131,16.131,0,0,0,2.33,1.731Zm-5.342-2.061a18.024,18.024,0,0,0,1.811-1.195,9.406,9.406,0,0,1-1.311-3.347h-.029Zm4.534-4.542h-2.3a5.837,5.837,0,0,0,.911,2.151A8.039,8.039,0,0,0,639.683,661.194Z" transform="translate(5.626 0.073)"/><path class="c" d="M650.4,654.144a9.519,9.519,0,0,0,4.152,5.316l-1.245,1.629a13.443,13.443,0,0,1-2.406-2.211,8.359,8.359,0,0,1-1.4-2.436,15.866,15.866,0,0,1-1.3,1.837,14.258,14.258,0,0,1-1.659,1.674l1.634.073-.183,1.764a13.4,13.4,0,0,1-.454,2.487,6.135,6.135,0,0,1-.863,1.77,11.4,11.4,0,0,1-1.657,1.791l-1.327-1.18a7.625,7.625,0,0,0,1.465-1.373,4.105,4.105,0,0,0,.706-1.405,12.838,12.838,0,0,0,.35-2.061l.179-1.732q-.442.373-1.284,1l-.938-1.465-.839,8.08h-1.749l.675-6.482c-.23.31-.556.712-.977,1.211l-1.032-1.568a21.813,21.813,0,0,0,2.249-3.026,17.318,17.318,0,0,0,1.733-3.516l1.678.521a29.673,29.673,0,0,1-1.578,3.256l-.149,1.435A13.578,13.578,0,0,0,649,654.144Zm.62,13.441h-1.762l.8-7.662,1.755.076Z" transform="translate(8.434)"/></g></g></svg>