<svg xmlns="http://www.w3.org/2000/svg" width="14" height="14" viewBox="0 0 14 14"><defs><style>.a,.b{fill:#fff;}.a{opacity:0;}</style></defs><g transform="translate(-973.511 -1189.511)"><rect class="a" width="14" height="14" transform="translate(973.511 1189.511)"/><g transform="translate(974.201 1190)"><path class="b" d="M2.907,2.563m-2.563,0A2.563,2.563,0,1,0,2.907,0,2.563,2.563,0,0,0,.344,2.563Z" transform="translate(-0.34)"/><path class="b" d="M617.307,2.563m-2.563,0A2.563,2.563,0,1,0,617.307,0,2.563,2.563,0,0,0,614.744,2.563Z" transform="translate(-607.05)"/><path class="b" d="M10.257,448.831A2.563,2.563,0,0,0,7.694,451.1l-1.282,1.282L5.131,451.1A2.567,2.567,0,1,0,0,451.395v4.486H5.131v-2.935l.827.827a.641.641,0,0,0,.9,0l.833-.827v2.935H12.82v-4.486a2.563,2.563,0,0,0-2.563-2.563Z" transform="translate(0 -443.064)"/></g></g></svg>