<svg xmlns="http://www.w3.org/2000/svg" width="18" height="18" viewBox="0 0 18 18"><defs><style>.a{fill:#fff;opacity:0;}.b{fill:#ff6f4a;}.c{fill:#fcbd54;}</style></defs><g transform="translate(-1409 -89)"><rect class="a" width="18" height="18" transform="translate(1409 89)"/><g transform="translate(1409 89.966)"><path class="b" d="M.587,3.426.043,1.469a1.159,1.159,0,1,1,2.234,0L1.733,3.426a.594.594,0,0,1-1.146,0Z" transform="translate(7.604 1.663)"/><path class="b" d="M1.591,2.46.169,1.012A.6.6,0,0,1,.742.018L2.706.526a1.159,1.159,0,0,1-.291,2.282A1.146,1.146,0,0,1,1.591,2.46Z" transform="translate(10.826 8.818)"/><path class="b" d="M2.841,2.791.87,2.281A1.159,1.159,0,1,1,1.987.347L3.414,1.8A.593.593,0,0,1,2.99,2.809.616.616,0,0,1,2.841,2.791Z" transform="translate(3.314 4.244)"/><path class="b" d="M.08,2.516A.593.593,0,0,1,.17,1.8L1.6.347A1.159,1.159,0,1,1,2.72,2.281L.743,2.793A.548.548,0,0,1,.6,2.812.594.594,0,0,1,.08,2.516Z" transform="translate(10.708 4.237)"/><path class="c" d="M0,1.222A1.223,1.223,0,0,1,1.425.017L5.146.636a.594.594,0,0,1,0,1.172l-3.722.62a1.144,1.144,0,0,1-.2.017A1.223,1.223,0,0,1,0,1.222Z" transform="translate(0 6.528)"/><path class="c" d="M4.219,2.429.5,1.808A.594.594,0,0,1,.5.636L4.219.017a1.223,1.223,0,1,1,.2,2.429A1.155,1.155,0,0,1,4.219,2.429Z" transform="translate(11.88 6.528)"/><path class="b" d="M.637,8.12A1.271,1.271,0,0,1,.224,6.3L4.38.259A.594.594,0,0,1,5.412.836l-2.978,6.7a1.269,1.269,0,0,1-1.8.582Z" transform="translate(3.672 7.39)"/><path class="c" d="M.3,5.014a.6.6,0,0,1-.26-.722L1.34.8A1.223,1.223,0,1,1,3.428,2L1.051,4.877a.591.591,0,0,1-.458.216A.582.582,0,0,1,.3,5.014Z" transform="translate(10.075 0.014)"/><path class="c" d="M1.362,4.34.038.8A.594.594,0,0,1,1.052.218l2.4,2.916A1.223,1.223,0,1,1,1.362,4.34Z" transform="translate(10.06 10.372)"/><path class="c" d="M2.676,4.915.279,2A1.223,1.223,0,1,1,2.369.8L3.691,4.329a.594.594,0,0,1-1.015.586Z" transform="translate(3.805 0)"/></g></g></svg>