<svg xmlns="http://www.w3.org/2000/svg" xmlns:xlink="http://www.w3.org/1999/xlink" width="60" height="16" viewBox="0 0 60 16"><defs><style>.a,.b{fill:#727fff;}.a{opacity:0.2;}.b{opacity:0.35;}.c{fill:url(#a);}</style><linearGradient id="a" x1="0.5" x2="0.5" y2="1" gradientUnits="objectBoundingBox"><stop offset="0" stop-color="#727fff"/><stop offset="1" stop-color="#5869ff"/></linearGradient></defs><g transform="translate(-230 -700)"><rect class="a" width="56" height="4" rx="2" transform="translate(230 712)"/><rect class="b" width="11" height="4" rx="2" transform="translate(279 706)"/><g transform="translate(-3178.875 -15613)"><g transform="translate(3409.875 16313)"><path class="c" d="M616.583,615.194l-.588,3.5H608.85l-.115.682h7.519l-.718,4.261h-9.359l1.421-8.439h-1.466l.471-2.8h5.119l-.075-1,1.983-.083.061,1.086h4.931l-.471,2.8Zm-8.325-1.184-.129.766h8.18l.128-.766Zm.849,3.147h5.276l.147-.877h-5.275Zm4.836,5,.216-1.281h-5.677l-.216,1.281Z" transform="translate(-606.132 -611.05)"/><path class="c" d="M630.37,614.613h-7q-.2,1-.291,1.4h5.664l-1.253,5.31a3.538,3.538,0,0,1-.576,1.331,1.953,1.953,0,0,1-.921.648,6.342,6.342,0,0,1-1.568.265l-1.368.1-.3-1.729,1.294-.084a4.98,4.98,0,0,0,.97-.132.843.843,0,0,0,.477-.314,1.984,1.984,0,0,0,.268-.7l.73-2.969h-3.867a10.136,10.136,0,0,1-1.777,3.38,16.164,16.164,0,0,1-3.324,2.934l-1.091-1.464a14.983,14.983,0,0,0,2.439-1.9A7.394,7.394,0,0,0,620.3,618.7a13.583,13.583,0,0,0,.938-2.8q.178-.711.288-1.283h-3.177l.294-1.742h5.1l-.113-1.464,1.985-.1c.046.418.077.939.1,1.561h4.945Z" transform="translate(-604.12 -611.05)"/><path class="c" d="M633.727,611.449l-.365,2.173h1.107l-.272,1.616h-1.107l-.272,1.616.321-.111.334-.111q.214-.07.352-.125l-.085.766-.086.85-1.11.362-.574,3.413a3.451,3.451,0,0,1-.322,1.06,1.3,1.3,0,0,1-.589.556,3.341,3.341,0,0,1-1.055.251l-.879.1-.253-1.574.781-.111a.864.864,0,0,0,.531-.209,1.1,1.1,0,0,0,.2-.529l.408-2.424-1.616.461-.08-1.575q.519-.1,1.968-.5l.363-2.159h-1.538l.272-1.616h1.538l.375-2.229Zm6.281,12.4a14.2,14.2,0,0,1-2.276-1.853,21,21,0,0,1-2.376,1.56l-.5-.864-.192,1.142h-1.64l2.045-12.146h7.059q-.131.611-.323,1.364t-.311,1.212a2.04,2.04,0,0,1-.707,1.121,2.666,2.666,0,0,1-1.4.4l-1.538.084-.226-1.477,1.308-.084a1.545,1.545,0,0,0,.672-.146.6.6,0,0,0,.262-.369l.157-.5h-3.58l-.49,2.911h5.592l-.246,1.463a11.252,11.252,0,0,1-2.213,3.148,14.066,14.066,0,0,0,2.143,1.616Zm-5.024-1.922a18.523,18.523,0,0,0,1.811-1.115,8.089,8.089,0,0,1-1.07-3.12H635.7Zm4.622-4.235h-2.213a5.023,5.023,0,0,0,.755,2.006A8.146,8.146,0,0,0,639.605,617.69Z" transform="translate(-601.691 -611.034)"/><path class="c" d="M650.716,611.093a7.891,7.891,0,0,0,1.374,2.858,8.067,8.067,0,0,0,2.319,2.105l-1.29,1.52a11.614,11.614,0,0,1-2.19-2.063,7.153,7.153,0,0,1-1.206-2.273,16.148,16.148,0,0,1-1.36,1.715,14.7,14.7,0,0,1-1.693,1.561l1.569.07-.277,1.645a12.68,12.68,0,0,1-.577,2.321,6.153,6.153,0,0,1-.931,1.652,11.851,11.851,0,0,1-1.7,1.673l-1.21-1.1a7.929,7.929,0,0,0,1.488-1.283,4.09,4.09,0,0,0,.76-1.31,12.025,12.025,0,0,0,.453-1.924l.272-1.617q-.446.348-1.293.934l-.819-1.366-1.269,7.542h-1.682l1.018-6.051c-.241.288-.577.666-1.01,1.129l-.9-1.464a22.385,22.385,0,0,0,2.337-2.823,17.138,17.138,0,0,0,1.866-3.283l1.586.488a29.275,29.275,0,0,1-1.7,3.039l-.224,1.338a13.979,13.979,0,0,0,4.943-5.033Zm-.169,12.547h-1.7l1.2-7.152,1.684.07Z" transform="translate(-599.409 -611.093)"/></g></g></g></svg>