<svg xmlns="http://www.w3.org/2000/svg" width="26" height="14" viewBox="0 0 26 14"><defs><style>.a{fill:#00b354;}.b{fill:#fff;}</style></defs><g transform="translate(-939 -638)"><rect class="a" width="26" height="14" rx="7" transform="translate(939 638)"/><path class="b" d="M36.249,242.65l-2.48,6.234H31.66q.14-1.143.42-3.011-.3.822-.672,1.659l-.583,1.353H28.71l.88-6.234h1.675q-.048.244-.551,3.571.125-.342,1.413-3.571h1.609l-.582,3.57q.521-1.564,1.422-3.571h1.674ZM28.6,245.726H25.938l-.39,1.507a1.723,1.723,0,0,0-.091.609c.021.091.094.136.219.136a.412.412,0,0,0,.36-.181,2.438,2.438,0,0,0,.26-.7l.238-.919h1.951l-.133.514a5.556,5.556,0,0,1-.336.993,2.874,2.874,0,0,1-.561.74,2.593,2.593,0,0,1-.889.591,3.166,3.166,0,0,1-1.169.2,2.777,2.777,0,0,1-1.1-.194,1.28,1.28,0,0,1-.639-.533,1.511,1.511,0,0,1-.191-.746,5.09,5.09,0,0,1,.2-1.184l.526-2.032a4.389,4.389,0,0,1,.613-1.441,2.427,2.427,0,0,1,.994-.809,3.166,3.166,0,0,1,1.326-.281,2.283,2.283,0,0,1,1.341.339,1.3,1.3,0,0,1,.557.9,4.257,4.257,0,0,1-.18,1.573Zm-1.7-2.5a.327.327,0,0,0-.3.134,3.343,3.343,0,0,0-.238.722l-.132.509h.6l.132-.509a2.712,2.712,0,0,0,.125-.7A.163.163,0,0,0,26.9,243.227Zm-1.707-1.407a2.655,2.655,0,0,0-1.094.86,4.581,4.581,0,0,0-.675,1.534l-.579,2.162a5.24,5.24,0,0,0-.22,1.26,1.566,1.566,0,0,0,.211.793,1.4,1.4,0,0,0,.7.567l.043.015-.055.2H21.058l-.151-4.774-1.314,4.774H17.237l2.891-10.5h2.356l.277,4.728,1.3-4.728H26.42l-.815,2.961A3.5,3.5,0,0,0,25.194,241.82Z" transform="translate(925.257 400.562)"/></g></svg>