<svg xmlns="http://www.w3.org/2000/svg" width="24" height="24" viewBox="0 0 24 24"><defs><style>.a{fill:#edf2f2;}.b{fill:none;}.c{fill:rgba(255,39,66,0.5);}.d{fill:#ff2442;}.d,.e{stroke:rgba(0,0,0,0);stroke-miterlimit:10;}.e{fill:#ff2742;}.f{fill:#fff;stroke:#fff;stroke-width:0.5px;}</style></defs><g transform="translate(-604 -719)"><circle class="a" cx="12" cy="12" r="12" transform="translate(604 719)"/><g transform="translate(65 23)"><rect class="b" width="14" height="14" transform="translate(544 701)"/><g transform="translate(544.75 702.5)"><path class="c" d="M431.5,330.928c0,1.933-3.25,3.5-3.5,3.5s-3.5-1.567-3.5-3.5,2-3,3.5-1C429.75,327.928,431.5,328.995,431.5,330.928Z" transform="translate(-421.75 -328.856)"/><path class="d" d="M4.643,8a3.8,3.8,0,0,1-3.8-3.8V2.188A1.111,1.111,0,0,1,1.11,0H9.388a1.111,1.111,0,0,1,.271,2.189V4.194A3.8,3.8,0,0,1,5.855,8Z" transform="translate(1.001 3.073)"/><path class="e" d="M3,9A2,2,0,0,1,1,7V2.491A1.136,1.136,0,0,1,0,1.363V1.135A1.136,1.136,0,0,1,1.136,0H11.364A1.136,1.136,0,0,1,12.5,1.135v.229a1.136,1.136,0,0,1-1,1.128V7a2,2,0,0,1-2,2Z" transform="translate(0 2.573)"/><g transform="translate(4.583 6.072)"><path class="f" d="M429.833,343a1.668,1.668,0,0,1-1.667-1.667.333.333,0,1,1,.667,0,1,1,0,0,0,2,0,.333.333,0,1,1,.667,0A1.668,1.668,0,0,1,429.833,343Z" transform="translate(-428.167 -341)"/></g></g></g></g></svg>