<svg xmlns="http://www.w3.org/2000/svg" width="14" height="14" viewBox="0 0 14 14"><defs><style>.a{fill:none;}.b{fill:#fff;}</style></defs><g transform="translate(-274 -139)"><rect class="a" width="14" height="14" transform="translate(274 139)"/><path class="b" d="M116.968,109.5h0c0-.009,0-.017,0-.026s0-.015,0-.023,0-.018,0-.026,0-.01,0-.016V109.4c0-.009,0-.018-.007-.026s0-.014-.005-.021-.007-.018-.01-.027l0-.009,0-.005v0c0-.009-.009-.018-.013-.027l-.008-.015-.016-.026,0-.008,0,0v0l-.018-.024-.01-.013-.02-.022-.012-.013h0l-.019-.017-.014-.013-.021-.016-.016-.012,0,0-.006,0-.013-.008-.018-.011-.024-.011-.019-.009-.006,0-.007,0-.012,0-.021-.008-.022-.006-.025-.006h-.01l-.018,0-.02,0-.05,0h0l-3.883.014a.491.491,0,0,0,0,.981h0l2.7-.01-1.774,1.787a3.55,3.55,0,0,0-2.2-.764h-.048a3.574,3.574,0,0,0,.046,7.147h.048a3.567,3.567,0,0,0,2.834-5.679l1.784-1.8v2.693a.491.491,0,0,0,.981,0V109.5h0Zm-3.907,6.789a2.413,2.413,0,0,1-1.708.734h-.033a2.429,2.429,0,0,1-.031-4.858h.033a2.438,2.438,0,0,1,2.428,2.4,2.412,2.412,0,0,1-.689,1.727Z" transform="translate(168.773 32.514)"/></g></svg>