<svg xmlns="http://www.w3.org/2000/svg" xmlns:xlink="http://www.w3.org/1999/xlink" width="60" height="16" viewBox="0 0 60 16"><defs><style>.a,.b{fill:#ff7800;}.a{opacity:0.2;}.b{opacity:0.35;}.c{fill:#fff;opacity:0;}.d{fill:url(#a);}</style><linearGradient id="a" x1="0.5" x2="0.5" y2="1" gradientUnits="objectBoundingBox"><stop offset="0" stop-color="#ffa351"/><stop offset="1" stop-color="#ff7800"/></linearGradient></defs><g transform="translate(-230 -700)"><rect class="a" width="56" height="4" rx="2" transform="translate(230 712)"/><rect class="b" width="11" height="4" rx="2" transform="translate(279 706)"/><rect class="c" width="57" height="14" transform="translate(230 700)"/><g transform="translate(230.438 700)"><path class="d" d="M4.953,12.176,3.726,11.73l.668-1.4H3.759l-.714,4.527A4.445,4.445,0,0,1,2.749,16a1,1,0,0,1-.549.5,4.742,4.742,0,0,1-1.2.242l-.7.058L0,15.147.728,15.1a1.724,1.724,0,0,0,.491-.093.451.451,0,0,0,.235-.252,3.076,3.076,0,0,0,.15-.634l.6-3.793H.414L.678,8.662H2.811A8.909,8.909,0,0,0,1.429,7.19L2.5,6.135q.354.315.835.835l1.2-1.1H1.549L1.8,4.287H6.615L6.343,6.028l-2.09,2,.274.361-.334.275H6.158L5.9,10.3Zm7.583,3.217-1.2,1.6a14.664,14.664,0,0,0-1.212-1.284q-.766-.726-1.479-1.319a6.852,6.852,0,0,1-1.562,1.4,14.689,14.689,0,0,1-2.327,1.225l-.82-1.571a12.079,12.079,0,0,0,2.537-1.19,3.7,3.7,0,0,0,1.239-1.262,5.493,5.493,0,0,0,.534-1.744L8.62,8.865l1.669.058-.4,2.489a7.644,7.644,0,0,1-.4,1.514q.835.618,1.714,1.335T12.536,15.392ZM8.769,6.826l.367-.965H6.829L7.086,4.23h6.662l-.257,1.631h-2.7c-.14.394-.262.716-.369.965H13.02l-1.055,6.714h-1.6l.8-5.091H7.951l-.8,5.091h-1.5L6.7,6.832Z" transform="translate(0 -3.524)"/><path class="d" d="M90.715,2.606q-.825,1.739-1.567,2.985l-1.464,9.288H85.94L86.913,8.7q-.267.317-.861.955L85.06,8.273a23.81,23.81,0,0,0,2.1-2.769,22.183,22.183,0,0,0,1.8-3.258ZM98.561,4.38l-.28,1.773H94.792l-.359,2.279h2.783l-1,6.288h-7.37l.992-6.288h2.813l.359-2.279H89.737l.28-1.773h3.273l.334-2.17,1.774.05-.334,2.12Zm-7.642,8.645h3.749l.446-2.838H91.365Z" transform="translate(-70.861 -1.841)"/><path class="d" d="M175.422,2.235l-.356,2.252h1.117l-.264,1.669h-1.11l-.264,1.669.32-.117.334-.115c.142-.047.26-.09.352-.129l-.082.793-.08.88-1.113.374-.561,3.539a3.631,3.631,0,0,1-.317,1.1,1.3,1.3,0,0,1-.589.578,3.243,3.243,0,0,1-1.057.26l-.881.1-.262-1.629.781-.115a.835.835,0,0,0,.532-.217,1.148,1.148,0,0,0,.194-.548l.4-2.5-1.619.476-.088-1.631q.521-.1,1.971-.519l.352-2.24h-1.544l.257-1.669h1.544l.364-2.307Zm6.368,12.833A14.39,14.39,0,0,1,179.5,13.15a20.73,20.73,0,0,1-2.374,1.616l-.5-.895-.187,1.183h-1.643l1.975-12.571h7.079q-.127.636-.315,1.414t-.307,1.257a2.16,2.16,0,0,1-.7,1.168,2.621,2.621,0,0,1-1.406.411l-1.542.087-.235-1.529,1.312-.085a1.512,1.512,0,0,0,.668-.152.621.621,0,0,0,.267-.4l.154-.519H178.15l-.476,3.023h5.61l-.239,1.5a11.557,11.557,0,0,1-2.2,3.258A14.213,14.213,0,0,0,183,13.588Zm-5.051-1.99a17.908,17.908,0,0,0,1.811-1.153,8.6,8.6,0,0,1-1.09-3.23h-.03ZM181.358,8.7h-2.22a5.341,5.341,0,0,0,.768,2.077A8.356,8.356,0,0,0,181.358,8.7Z" transform="translate(-142.131 -1.816)"/><path class="d" d="M264.777,0a8.321,8.321,0,0,0,1.394,2.956,8.307,8.307,0,0,0,2.337,2.178l-1.285,1.571a11.882,11.882,0,0,1-2.208-2.133,7.531,7.531,0,0,1-1.224-2.352,16.518,16.518,0,0,1-1.354,1.774,14.891,14.891,0,0,1-1.689,1.616l1.574.072-.269,1.7a13.342,13.342,0,0,1-.566,2.4,6.359,6.359,0,0,1-.925,1.708,11.929,11.929,0,0,1-1.7,1.731l-1.219-1.138a7.993,7.993,0,0,0,1.486-1.335,4.264,4.264,0,0,0,.754-1.355,12.874,12.874,0,0,0,.444-1.99l.264-1.669c-.3.24-.729.563-1.292.966l-.835-1.412-1.23,7.8H255.56l.987-6.246q-.357.449-1,1.168L254.63,6.5a22.771,22.771,0,0,0,2.337-2.921,17.71,17.71,0,0,0,1.841-3.41l1.594.5a30.645,30.645,0,0,1-1.693,3.143L258.491,5.2A14.181,14.181,0,0,0,263.422,0Zm-.1,12.978h-1.7l1.168-7.4,1.689.073Z" transform="translate(-212.126)"/></g></g></svg>