<svg xmlns="http://www.w3.org/2000/svg" width="18" height="18" viewBox="0 0 18 18"><defs><style>.a,.c{fill:#ff7800;}.a{opacity:0.1;}.b{fill:none;opacity:0;}</style></defs><g transform="translate(-794 -574.682)"><rect class="a" width="18" height="18" rx="9" transform="translate(794 574.682)"/><g transform="translate(795.067 575.748)"><rect class="b" width="16" height="16" transform="translate(-0.067 -0.066)"/><path class="c" d="M43.613,50.474h-.634a.313.313,0,1,1,0-.627h.634a6.554,6.554,0,0,1,6.241-6.241v-.627a.313.313,0,1,1,.627,0v.634a6.554,6.554,0,0,1,6.241,6.241h.634a.313.313,0,0,1,0,.627h-.634a6.554,6.554,0,0,1-6.241,6.241v.634a.313.313,0,1,1-.627,0v-.634a6.554,6.554,0,0,1-6.241-6.241Zm1.254-.627h.613a.313.313,0,0,1,0,.627h-.613a5.307,5.307,0,0,0,4.987,4.987v-.613a.313.313,0,1,1,.627,0v.613a5.307,5.307,0,0,0,4.987-4.987h-.613a.313.313,0,1,1,0-.627h.613A5.307,5.307,0,0,0,50.48,44.86v.613a.313.313,0,1,1-.627,0V44.86a5.307,5.307,0,0,0-4.994,4.987Zm5.294,2.93a2.616,2.616,0,1,1,2.616-2.616A2.616,2.616,0,0,1,50.16,52.776Zm0-1.131a1.482,1.482,0,1,0-1.482-1.482,1.482,1.482,0,0,0,1.482,1.482Z" transform="translate(-42.334 -41.994)"/></g></g></svg>