<svg xmlns="http://www.w3.org/2000/svg" width="18" height="18" viewBox="0 0 18 18"><defs><style>.a,.d{fill:none;}.b{fill:#626a6a;}.c{fill:#2998ff;opacity:0.45;}.d{stroke:#2998ff;}</style></defs><g transform="translate(-919 -276)"><rect class="a" width="18" height="18" transform="translate(919 276)"/><path class="b" d="M.386,2.222H4.35a9.418,9.418,0,0,1,.414-1.079H.386c-.213,0-.386.241-.386.54s.173.54.386.54ZM.426,7.7H5.382a8.7,8.7,0,0,1-.528-1.082H.426a.491.491,0,0,0-.413.541A.489.489,0,0,0,.426,7.7Zm13.133,4.263H.412a.562.562,0,0,0,0,1.082H13.559a.562.562,0,0,0,0-1.082Z" transform="translate(920.428 278.209)"/><g transform="translate(0 1)"><path class="c" d="M128.451,47.229l2.556-1.278a.836.836,0,0,1,.733,0l2.556,1.278a.779.779,0,0,1,.47.733v2.33a3.527,3.527,0,0,1-1.428,2.781,10.2,10.2,0,0,1-1.8,1,.354.354,0,0,1-.15.038.442.442,0,0,1-.15-.038,9.56,9.56,0,0,1-1.8-1A3.527,3.527,0,0,1,128,50.292v-2.33a.793.793,0,0,1,.451-.733Zm2.556,2.838v1.2a.376.376,0,0,0,.752,0v-1.2a.94.94,0,1,0-.752,0Z" transform="translate(800.234 233.893)"/><path class="d" d="M128.533,47.478l3.022-1.511a.989.989,0,0,1,.867,0l3.023,1.511a.921.921,0,0,1,.556.867V51.1a4.171,4.171,0,0,1-1.689,3.289,12.06,12.06,0,0,1-2.134,1.178.419.419,0,0,1-.178.044.523.523,0,0,1-.178-.044,11.305,11.305,0,0,1-2.134-1.178A4.171,4.171,0,0,1,128,51.1V48.345a.937.937,0,0,1,.533-.867Z" transform="translate(799 232.388)"/></g></g></svg>