<svg xmlns="http://www.w3.org/2000/svg" width="18" height="18" viewBox="0 0 18 18"><defs><style>.a,.c,.d,.e{fill:#727fff;}.a{opacity:0.1;}.b,.c{opacity:0;}.e{stroke:#727fff;stroke-width:0.2px;}</style></defs><g transform="translate(-1159 -574.855)"><rect class="a" width="18" height="18" rx="9" transform="translate(1159 574.855)"/><g class="b" transform="translate(1161.101 578.15)"><rect class="c" width="13" height="13" transform="translate(-0.102 -0.295)"/><path class="d" d="M4.563,10.485A60.208,60.208,0,0,1,8.237,4.817,33.8,33.8,0,0,1,11.65,1.012L11.254,0A29.716,29.716,0,0,0,7.191,3.2,27.649,27.649,0,0,0,3.927,7.109L1.14,4.7,0,5.822l4.563,4.663Z" transform="translate(0.24 0.645)"/></g><g transform="translate(1089.817 542.322)"><path class="e" d="M243.54,176.946l-.8-1.145.8-1.145a.443.443,0,0,0-.286-.69l-1.376-.243-.243-1.376a.443.443,0,0,0-.69-.286l-1.144.8-1.145-.8a.443.443,0,0,0-.69.286l-.243,1.376-1.376.242a.443.443,0,0,0-.286.69l.8,1.145-.8,1.145a.443.443,0,0,0,.286.69l1.376.243.243,1.376a.443.443,0,0,0,.69.286l1.144-.8,1.145.8a.443.443,0,0,0,.69-.286l.243-1.376,1.376-.243a.442.442,0,0,0,.286-.689Zm-1.7-.89.58.829-1,.176a.443.443,0,0,0-.359.359l-.176,1-.829-.58a.443.443,0,0,0-.508,0l-.829.58-.176-1a.443.443,0,0,0-.359-.359l-1-.176.58-.829a.443.443,0,0,0,0-.508l-.58-.829,1-.176a.443.443,0,0,0,.359-.359l.176-1,.829.58a.443.443,0,0,0,.508,0l.829-.58.176,1a.443.443,0,0,0,.359.359l1,.176-.58.829A.443.443,0,0,0,241.835,176.055Z" transform="translate(-161.714 -135.174)"/><path class="e" d="M78.088,34.912a6.088,6.088,0,0,0-4.243,10.454.443.443,0,1,0,.617-.635,5.2,5.2,0,1,1,7.36-.108.443.443,0,1,0,.635.617,6.088,6.088,0,0,0-4.369-10.328Z"/><path class="e" d="M293.756,761.088a.443.443,0,0,0-.443.443v1.482l-1.968-1.312h0a.442.442,0,0,0-.16-.065.421.421,0,0,0-.085,0,.454.454,0,0,0-.085,0,.447.447,0,0,0-.16.065h0l-1.968,1.313v-1.387a.443.443,0,0,0-.886,0v2.214c0,.014.007.026.008.039a.447.447,0,0,0,.051.169c.007.012.008.026.015.037s.021.019.03.03a.434.434,0,0,0,.3.159c.014,0,.027.008.041.008s.026-.007.039-.008a.447.447,0,0,0,.17-.051c.012-.007.026-.008.037-.015l2.41-1.607,2.411,1.607a.443.443,0,0,0,.614-.123.437.437,0,0,0,.066-.3c0-.015.008-.027.008-.042v-2.213A.443.443,0,0,0,293.756,761.088Z" transform="translate(-213.012 -716.128)"/></g></g></svg>