<svg xmlns="http://www.w3.org/2000/svg" width="24" height="24" viewBox="0 0 24 24"><defs><style>.a{fill:#edf2f2;}.b{fill:none;}.c,.d{fill:#ffb700;}.d{opacity:0.5;}</style></defs><g transform="translate(-633 -719)"><rect class="a" width="24" height="24" rx="12" transform="translate(633 719)"/><g transform="translate(-3)"><rect class="b" width="14" height="14" transform="translate(641 724)"/><g transform="translate(3.736 0.422)"><path class="c" d="M137.5,163.953a1.17,1.17,0,0,1,.45.088,1.114,1.114,0,0,1,.369.243,1.2,1.2,0,0,1,.25.369,1.127,1.127,0,0,1,0,.9,1.184,1.184,0,0,1-.619.618,1.1,1.1,0,0,1-.45.094,1.133,1.133,0,0,1-.462-.094,1.182,1.182,0,0,1-.619-.619,1.127,1.127,0,0,1,0-.9,1.2,1.2,0,0,1,.25-.369,1.116,1.116,0,0,1,.369-.244A1.2,1.2,0,0,1,137.5,163.953Zm5.2.025a1.217,1.217,0,0,1,.456.088,1.1,1.1,0,0,1,.375.243,1.205,1.205,0,0,1,.25.369,1.127,1.127,0,0,1,0,.9,1.2,1.2,0,0,1-.25.368,1.182,1.182,0,0,1-.375.25,1.146,1.146,0,0,1-1.275-.25,1.2,1.2,0,0,1-.25-.368,1.127,1.127,0,0,1,0-.9,1.2,1.2,0,0,1,.25-.369,1.117,1.117,0,0,1,.369-.244A1.17,1.17,0,0,1,142.7,163.978Zm2.1-7.1a1.275,1.275,0,0,1,.544.094.615.615,0,0,1,.275.231.525.525,0,0,1,.075.294.981.981,0,0,1-.044.269q-.038.112-.162.462t-.269.769l-.287.831q-.144.412-.231.65a1.438,1.438,0,0,1-.406.694.944.944,0,0,1-.606.194h-6.562l.175,1.125h6.312q.6,0,.6.512a.765.765,0,0,1-.119.431.52.52,0,0,1-.469.182h-6.55a.739.739,0,0,1-.419-.112.949.949,0,0,1-.281-.294,1.783,1.783,0,0,1-.181-.394,3.594,3.594,0,0,1-.106-.4q-.033-.182-.069-.362-.056-.287-.137-.719L135.5,159.3q-.265-1.407-.537-2.812h-.937a.506.506,0,0,1-.312-.094.816.816,0,0,1-.206-.225.866.866,0,0,1-.112-.281,1.357,1.357,0,0,1-.031-.275.549.549,0,0,1,.169-.412.63.63,0,0,1,.456-.162h1.262a.9.9,0,0,1,.4.075.679.679,0,0,1,.362.425l.062.212a2.772,2.772,0,0,1,.05.281l.05.368q.037.226.075.476Z" transform="translate(504.902 570.043)"/><path class="d" d="M144.41,156.432h-4.575l1.65-1.65a.9.9,0,0,1,.631-.294.855.855,0,0,1,.631.281Z" transform="translate(505.268 570.09)"/></g></g></g></svg>