<svg xmlns="http://www.w3.org/2000/svg" width="16" height="16" viewBox="0 0 16 16"><defs><style>.a,.d{fill:none;}.b{fill:#afb6b6;opacity:0.5;}.c{fill:#889191;}.d{stroke:#fff;stroke-linecap:round;stroke-linejoin:round;stroke-width:1.3px;}</style></defs><g transform="translate(-141.89 1218.453)"><rect class="a" width="16" height="16" transform="translate(141.89 -1218.453)"/><path class="b" d="M148.151-1214.657l7.379-.823a1.421,1.421,0,0,1,1.568,1.42l.016,6.5a1.135,1.135,0,0,1-1.031,1.14l-7.891.677a.977.977,0,0,1-1.06-.973v-6.785A1.155,1.155,0,0,1,148.151-1214.657Z" transform="translate(-0.022 -0.176)"/><path class="c" d="M154.012-1216.248a1.6,1.6,0,0,0-1.779-1.589l-9.044,1a.539.539,0,0,0-.48.536v13.343a.257.257,0,0,0,.26.253h.54a.258.258,0,0,0,.258-.22l.557-4.046,8.536-.723a1.277,1.277,0,0,0,1.17-1.276Z" transform="translate(-0.021 -0.176)"/><path class="d" d="M145.564-1212.352l1.719,1.539,3.431-3.695" transform="translate(0 0.055)"/></g></svg>