<svg xmlns="http://www.w3.org/2000/svg" width="14" height="14" viewBox="0 0 14 14"><defs><style>.a{fill:#2998ff;}.b{fill:#fff;}</style></defs><g transform="translate(-474 -1101)"><circle class="a" cx="7" cy="7" r="7" transform="translate(474 1101)"/><path class="b" d="M51.318,3.62l1.358-1.358a.2.2,0,0,1,.288,0,.206.206,0,0,1,.061.142V7.589a.407.407,0,0,1-.405.405H51.605a.407.407,0,0,1-.405-.405V3.9A.409.409,0,0,1,51.318,3.62ZM54.135.012l4.054,1.013a.408.408,0,0,1,.308.393v6.17a.407.407,0,0,1-.405.405H54.038a.407.407,0,0,1-.405-.405V.405A.407.407,0,0,1,54.038,0a.4.4,0,0,1,.1.012Zm.916,2.193a.405.405,0,0,0,0,.811h1.216a.405.405,0,0,0,0-.811Zm0,1.621a.405.405,0,0,0,0,.811h2.027a.405.405,0,0,0,0-.811Zm0,1.824a.405.405,0,0,0,0,.811h2.027a.405.405,0,0,0,0-.811Z" transform="translate(426.152 1104.004)"/></g></svg>