<svg xmlns="http://www.w3.org/2000/svg" width="14" height="14" viewBox="0 0 14 14"><defs><style>.a{fill:#2998ff;}.b{opacity:0.7;}.c{fill:#fff;}</style></defs><g transform="translate(-692 -1101)"><circle class="a" cx="7" cy="7" r="7" transform="translate(692 1101)"/><g transform="translate(694.492 1104.016)"><g class="b" transform="translate(0 0.001)"><path class="c" d="M209.183,52.718l-1.848,2.42,1.915,1.217a.238.238,0,0,0,.243.007l2.3-1.278L209.579,52.7A.259.259,0,0,0,209.183,52.718Z" transform="translate(-205.254 -52.616)"/><path class="c" d="M208.916,65.2l-3.809,2.12a.237.237,0,0,1-.242-.007L201.7,65.3h0l-.753.977a.247.247,0,0,0,.063.36l3.789,2.407a.371.371,0,0,0,.374.014l4.607-2.476a.247.247,0,0,0,.063-.387Z" transform="translate(-200.897 -61.133)"/><path class="c" d="M210.117,61.4l-2.66,1.476a.216.216,0,0,1-.221-.007l-2.221-1.417-.657.852,2.892,1.837a.193.193,0,0,0,.194.007l3.5-1.872Z" transform="translate(-203.239 -58.561)"/></g><g transform="translate(0 4.069)"><path class="c" d="M208.916,65.2l-3.809,2.12a.237.237,0,0,1-.242-.007L201.7,65.3h0l-.753.977a.247.247,0,0,0,.063.36l3.789,2.407a.371.371,0,0,0,.374.014l4.607-2.476a.247.247,0,0,0,.063-.387Z" transform="translate(-200.897 -65.201)"/></g></g></g></svg>