<svg xmlns="http://www.w3.org/2000/svg" width="14" height="14" viewBox="0 0 14 14"><defs><style>.a{fill:none;}.b{fill:#fff;stroke:#fff;stroke-width:0.3px;}</style></defs><g transform="translate(-670 -174)"><rect class="a" width="14" height="14" transform="translate(670 174)"/><path class="b" d="M195.468,93.4v-.517a3.782,3.782,0,1,1,.757-.012v.53H197.3a.378.378,0,1,1,0,.757h-1.072v.914a.378.378,0,0,1-.757,0v-.914h-1.2a.378.378,0,0,1,0-.757Zm.315-1.261a3.027,3.027,0,1,0-3.027-3.027A3.027,3.027,0,0,0,195.783,92.143Z" transform="translate(481.438 90.757)"/></g></svg>