<svg xmlns="http://www.w3.org/2000/svg" width="14" height="14" viewBox="0 0 14 14"><defs><style>.a{fill:#2998ff;}.b{fill:#fff;}</style></defs><g transform="translate(-362 -1101)"><circle class="a" cx="7" cy="7" r="7" transform="translate(362 1101)"/><path class="b" d="M6.9,7.2H2.292a.476.476,0,0,0,0,.945H6.9a.476.476,0,0,0,0-.945Zm2.02-5.346a.72.72,0,0,0-.12-.1.949.949,0,0,0-.552-.177.979.979,0,0,0-.968.99,1,1,0,0,0,.4.8c-.171.2-.8.909-1.093.823-.458-.132-.558-2.079-.565-2.231a.971.971,0,1,0-.609-.1c-.109.275-.54,1.326-.833,1.323s-.736-1.1-.828-1.34A.994.994,0,0,0,4.236.985a.969.969,0,1,0-1.281.936.619.619,0,0,0,.183.045S2.948,4,2.513,4.112c-.372.092-.866-.535-1.013-.735a1,1,0,0,0,.411-.809.979.979,0,0,0-.968-.99.96.96,0,0,0-.236.031A.73.73,0,0,0,.089,2.1,1,1,0,0,0,.174,3.169a.779.779,0,0,0,.278.252.947.947,0,0,0,.491.138.96.96,0,0,0,.147-.013c.035.27.446,2.918,1.017,2.948,0,0,4.308,0,4.975,0,.62,0,1.057-2.861,1.057-2.861l.01-.079c.032,0,.064,0,.1,0a.947.947,0,0,0,.479-.13A.59.59,0,0,0,9.118,3a1,1,0,0,0-.2-1.141Zm0,0" transform="translate(364.406 1103.928)"/></g></svg>