<svg xmlns="http://www.w3.org/2000/svg" xmlns:xlink="http://www.w3.org/1999/xlink" width="184" height="56" viewBox="0 0 184 56"><defs><style>.a{fill:url(#a);}.b{fill:url(#b);}.c{fill:url(#c);}.d{fill:url(#d);}.e,.f{fill:#fff;}.e{font-size:30px;font-family:AlibabaPuHuiTi_2_55_Regular, 'Alibaba PuHuiTi \32 \.0';}.f{opacity:0;}</style><linearGradient id="a" y1="0.663" x2="1.01" y2="0.701" gradientUnits="objectBoundingBox"><stop offset="0" stop-color="#8c7bff"/><stop offset="1" stop-color="#a2c3ef"/></linearGradient><linearGradient id="b" x1="0.5" x2="0.266" y2="1" gradientUnits="objectBoundingBox"><stop offset="0" stop-color="#8c7bff"/><stop offset="0.837" stop-color="#dbd6ff"/><stop offset="1" stop-color="#9eb6f2"/></linearGradient><linearGradient id="c" x1="0.047" y1="0.95" x2="0.933" y2="-0.012" gradientUnits="objectBoundingBox"><stop offset="0" stop-color="#fff"/><stop offset="1" stop-color="#a0bbff"/></linearGradient><linearGradient id="d" x1="0.5" x2="0.5" y2="1" gradientUnits="objectBoundingBox"><stop offset="0" stop-color="#fff"/><stop offset="0.965" stop-color="#a0bbff"/><stop offset="1" stop-color="#d9e4ff"/></linearGradient></defs><g transform="translate(-220 -84)"><g transform="translate(0.457 -12.98)"><g transform="translate(144 -377)"><g transform="translate(75.543 478)"><g transform="translate(0 0)"><path class="a" d="M10,0H154.248a4,4,0,0,1,4,4V36.786a10,10,0,0,1-10,10H4a4,4,0,0,1-4-4V10A10,10,0,0,1,10,0Z" transform="translate(0 4.558)"/><path class="b" d="M-2433.419-5175.871c-11.278-8.535-22.995.681-18.507,10.742s-8.579,31.778-22.113,31.316c-6.537-.222-2.8.811-2.8.811s17.013,1.97,31.741-2.139C-2423.819-5142.689-2422.141-5167.335-2433.419-5175.871Z" transform="translate(2609.278 5183.874)"/><path class="c" d="M4.973,26.793c6.048,4.069,11.969.151,7.745-4.861C11.092,20,8.9,14.219,12.239,10.012,16.91,4.131,28.363-.338,24.693.02,18.724.6,12.059.213,4.929,6.25S-1.075,22.724,4.973,26.793Z" transform="translate(169.414 10.224) rotate(120)"/><circle class="d" cx="5.214" cy="5.214" r="5.214" transform="translate(8.691 11.154)"/></g></g></g><text class="e" transform="translate(254 140)"><tspan x="0" y="0">资源库</tspan></text></g><rect class="f" width="184" height="56" transform="translate(220 84)"/></g></svg>