<svg xmlns="http://www.w3.org/2000/svg" width="12" height="11.194" viewBox="0 0 12 11.194"><defs><style>.a{fill:#ff401a;}</style></defs><path class="a" d="M11.914,4.31A5.628,5.628,0,0,0,6.729.891V2.162a4.231,4.231,0,0,1,4.363,4.326,4.233,4.233,0,0,1-4.363,4.331A4.244,4.244,0,0,1,2.415,6.426a3.343,3.343,0,0,1,.138-1.2l.891.446L3.413,3.918,3.381,2.162l-1.512.905L.357,3.973l1.089.6a5.575,5.575,0,0,0,1.309,5.874,5.635,5.635,0,0,0,9.16-1.779,5.588,5.588,0,0,0,0-4.358Z" transform="translate(-0.357 -0.891)"/></svg>