<svg xmlns="http://www.w3.org/2000/svg" width="14" height="14" viewBox="0 0 14 14"><defs><style>.a{fill:#fff;}.b{fill:#ff2742;}</style></defs><circle class="a" cx="6" cy="6" r="6" transform="translate(1 1)"/><path class="b" d="M7,14a7,7,0,1,1,7-7A7.008,7.008,0,0,1,7,14ZM3.605,6.449a.345.345,0,0,0-.321.209.469.469,0,0,0,.152.506l2.853,2.881L10.75,4.924a.244.244,0,0,0,.058-.277.391.391,0,0,0-.351-.229.354.354,0,0,0-.3.17C8.6,6.01,6.229,8.2,6.211,8.217L3.87,6.539A.446.446,0,0,0,3.605,6.449Z"/></svg>