<svg xmlns="http://www.w3.org/2000/svg" width="20" height="20" viewBox="0 0 20 20"><defs><style>.a{fill:none;}.b{fill:#2953ff;}.c{fill:#ff354a;}.d{fill:#93a8ff;}</style></defs><rect class="a" width="20" height="20"/><g transform="translate(-166.729 -135.296)"><path class="b" d="M177.107,144.728h-4.925a1.52,1.52,0,0,1-1.515-1.515v-3.031a1.52,1.52,0,0,1,1.515-1.515h4.167a1.52,1.52,0,0,1,1.515,1.515v3.789a.76.76,0,0,1-.758.758Z"/><path class="c" d="M642.273,144.729h-1.515a.76.76,0,0,1-.758-.758v-3.789a1.52,1.52,0,0,1,1.515-1.515h.758a1.52,1.52,0,0,1,1.515,1.515v3.031a1.52,1.52,0,0,1-1.515,1.515Z" transform="translate(-460.999 -0.001)"/><path class="b" d="M453.682,550.062h-4.167A1.52,1.52,0,0,1,448,548.546v-3.789a.76.76,0,0,1,.758-.758h4.925a1.52,1.52,0,0,1,1.515,1.515v3.031a1.52,1.52,0,0,1-1.515,1.516Z" transform="translate(-272.408 -398.135)"/><path class="d" d="M172.94,550.061h-.758a1.52,1.52,0,0,1-1.515-1.515v-3.031A1.52,1.52,0,0,1,172.182,544H173.7a.76.76,0,0,1,.758.758v3.789A1.52,1.52,0,0,1,172.94,550.061Z" transform="translate(0 -398.135)"/></g></svg>