<svg xmlns="http://www.w3.org/2000/svg" xmlns:xlink="http://www.w3.org/1999/xlink" width="20" height="20" viewBox="0 0 20 20"><defs><style>.a{fill:none;}.b{fill:url(#a);}</style><linearGradient id="a" x1="0.5" x2="0.5" y2="1" gradientUnits="objectBoundingBox"><stop offset="0" stop-color="#ff2451"/><stop offset="1" stop-color="#ffa5a5"/></linearGradient></defs><g transform="translate(-0.336)"><rect class="a" width="20" height="20" transform="translate(0.336)"/><path class="b" d="M12.155,13.893H1.642A1.713,1.713,0,0,1,0,12.252V1.54C0,.484.985,0,1.9,0h9.468c.394,0,.534.15.534.572v8.9a.409.409,0,0,1-.433.432H1.943a.98.98,0,0,0-.951.908V11.9a1.049,1.049,0,0,0,.945.988H12.031a.944.944,0,0,0,.862-.88V2.058a.479.479,0,0,1,.509-.432.5.5,0,0,1,.344.157.424.424,0,0,1,.137.275V12.065A1.879,1.879,0,0,1,12.155,13.893ZM3.044,4.587a.182.182,0,0,1,.066.014l.653.347a.231.231,0,0,0,.124.032.276.276,0,0,0,.2-.094.259.259,0,0,0,.059-.215l-.127-.729a.142.142,0,0,1,.042-.123l.526-.51a.262.262,0,0,0,.068-.274.267.267,0,0,0-.214-.182l-.729-.108a.145.145,0,0,1-.108-.075l-.325-.663a.266.266,0,0,0-.475,0l-.326.663a.14.14,0,0,1-.107.075l-.729.108a.274.274,0,0,0-.215.178.265.265,0,0,0,.066.274l.524.514a.137.137,0,0,1,.042.123l-.124.725A.259.259,0,0,0,2,4.883a.254.254,0,0,0,.2.1.244.244,0,0,0,.121-.032L2.979,4.6A.126.126,0,0,1,3.044,4.587ZM11.438,11.9H2.45a.5.5,0,0,1-.466-.5.483.483,0,0,1,.464-.488h8.988a.47.47,0,0,1,.449.488A.478.478,0,0,1,11.438,11.9Z" transform="translate(2.306 2.999)"/></g></svg>