<svg xmlns="http://www.w3.org/2000/svg" width="14" height="14" viewBox="0 0 14 14"><defs><style>.a{fill:#fff;opacity:0;}.b{fill:#ff6f4a;}.c{fill:#fcbd54;}</style></defs><g transform="translate(-1409 -89)"><rect class="a" width="14" height="14" transform="translate(1409 89)"/><g transform="translate(1405.444 85.568)"><path class="b" d="M.467,2.723.034,1.168a.922.922,0,1,1,1.776,0L1.377,2.723a.472.472,0,0,1-.911,0Z" transform="translate(9.598 5.521)"/><path class="b" d="M1.265,1.955.134.8A.474.474,0,0,1,.59.015l1.561.4a.921.921,0,0,1-.231,1.813A.911.911,0,0,1,1.265,1.955Z" transform="translate(12.16 11.208)"/><path class="b" d="M2.258,2.219.691,1.813A.921.921,0,1,1,1.58.276L2.714,1.432a.471.471,0,0,1-.337.8A.489.489,0,0,1,2.258,2.219Z" transform="translate(6.189 7.571)"/><path class="b" d="M.063,2a.471.471,0,0,1,.071-.566L1.273.276a.921.921,0,1,1,.888,1.537L.59,2.221a.436.436,0,0,1-.117.015A.472.472,0,0,1,.063,2Z" transform="translate(12.066 7.566)"/><path class="c" d="M0,.972A.972.972,0,0,1,1.133.014L4.091.506a.472.472,0,0,1,0,.932l-2.958.493a.909.909,0,0,1-.161.014A.972.972,0,0,1,0,.972Z" transform="translate(3.555 9.388)"/><path class="c" d="M3.354,1.931.4,1.438A.472.472,0,0,1,.4.506L3.354.014a.972.972,0,1,1,.162,1.931A.918.918,0,0,1,3.354,1.931Z" transform="translate(12.997 9.388)"/><path class="b" d="M.506,6.454A1.01,1.01,0,0,1,.178,5.007l3.3-4.8A.472.472,0,0,1,4.3.664L1.935,5.991a1.008,1.008,0,0,1-1.429.463Z" transform="translate(6.473 10.073)"/><path class="c" d="M.236,3.985a.475.475,0,0,1-.207-.574L1.065.633a.972.972,0,1,1,1.659.959L.835,3.877a.47.47,0,0,1-.364.172A.463.463,0,0,1,.236,3.985Z" transform="translate(11.563 4.21)"/><path class="c" d="M1.083,3.449.03.639A.472.472,0,0,1,.836.173L2.744,2.49a.972.972,0,1,1-1.661.959Z" transform="translate(11.551 12.443)"/><path class="c" d="M2.127,3.906.222,1.589A.972.972,0,1,1,1.883.633L2.934,3.44a.472.472,0,0,1-.807.466Z" transform="translate(6.579 4.199)"/></g></g></svg>