<svg xmlns="http://www.w3.org/2000/svg" xmlns:xlink="http://www.w3.org/1999/xlink" width="20" height="20" viewBox="0 0 20 20"><defs><style>.a{fill:none;}.b,.c{opacity:0.56;}.b{fill:url(#a);}.c{fill:url(#b);}.d{clip-path:url(#c);}.e{fill:url(#d);}.f{fill:#fff;}</style><linearGradient id="a" x1="4.859" y1="-1.648" x2="4.945" y2="-1.035" gradientUnits="objectBoundingBox"><stop offset="0" stop-color="#f08198"/><stop offset="0.809" stop-color="#f06598"/><stop offset="0.994" stop-color="#f05e98"/></linearGradient><linearGradient id="b" x1="18.435" y1="2.135" x2="18.52" y2="2.748" xlink:href="#a"/><clipPath id="c"><rect class="a" width="17.671" height="12.179"/></clipPath><linearGradient id="d" x1="0.477" y1="-0.019" x2="0.513" y2="0.917" xlink:href="#a"/></defs><g transform="translate(0.186)"><rect class="a" width="20" height="20" transform="translate(-0.186)"/><g transform="translate(0.979 1.937)"><rect class="b" width="1.705" height="5.502" rx="0.853" transform="translate(2.773 1.244) rotate(-46.83)"/><rect class="c" width="1.705" height="5.502" rx="0.853" transform="translate(10.194 5.008) rotate(-133.17)"/><g transform="translate(0 3.1)"><g class="d"><g transform="translate(1.61 -2.21)"><path class="e" d="M604.724,671.153a2.552,2.552,0,0,0-1.79-.734h-.81l.7-.726a.908.908,0,0,0,0-1.226.818.818,0,0,0-.605-.242.865.865,0,0,0-.62.242l-2.061,1.952H597.1l-2.028-1.952a.879.879,0,0,0-1.21,0,.906.906,0,0,0,0,1.226l.7.726h-.813a2.606,2.606,0,0,0-1.806.734,2.728,2.728,0,0,0-.74,1.848v5.58a2.778,2.778,0,0,0,.74,1.929,2.513,2.513,0,0,0,1.806.765h9.071a2.571,2.571,0,0,0,1.813-.751,2.534,2.534,0,0,0,.733-1.831V673A2.471,2.471,0,0,0,604.724,671.153Z" transform="translate(-591.206 -668.225)"/><path class="f" d="M599.178,678.771a.964.964,0,0,1,.279.653v.936a.976.976,0,0,1-.271.652.931.931,0,0,1-1.306,0,.974.974,0,0,1-.271-.652v-.936a.963.963,0,0,1,.279-.653.887.887,0,0,1,.645-.281A.93.93,0,0,1,599.178,678.771Z" transform="translate(-594.046 -672.682)"/><path class="f" d="M608.7,678.771a.963.963,0,0,1,.279.653v.936a.974.974,0,0,1-.271.652.921.921,0,0,1-1.574-.652v-.936a.947.947,0,0,1,.277-.653.88.88,0,0,1,1.289,0Z" transform="translate(-598.27 -672.682)"/></g></g></g></g></g></svg>