<svg xmlns="http://www.w3.org/2000/svg" xmlns:xlink="http://www.w3.org/1999/xlink" width="1720" height="251" viewBox="0 0 1720 251"><defs><style>.a{fill:#fff;stroke:#707070;}.b{fill:url(#a);}.c{clip-path:url(#b);}.d,.h{opacity:0.1;}.d{fill:url(#c);}.e{fill:url(#d);}.f{fill:url(#g);}.g{clip-path:url(#j);}.h{fill:url(#k);}.i{fill:url(#l);}.j{fill:url(#o);}.k{filter:url(#p);}.l{filter:url(#m);}.m{filter:url(#h);}.n{filter:url(#e);}</style><linearGradient id="a" x2="0.037" y2="1.179" gradientUnits="objectBoundingBox"><stop offset="0" stop-color="#727fff" stop-opacity="0.2"/><stop offset="1" stop-color="#fff" stop-opacity="0"/></linearGradient><clipPath id="b"><rect class="a" width="364" height="251" transform="translate(0 0.002)"/></clipPath><linearGradient id="c" x1="0.5" y1="1" x2="0.5" gradientUnits="objectBoundingBox"><stop offset="0" stop-color="#727fff" stop-opacity="0"/><stop offset="1" stop-color="#2792f5"/></linearGradient><linearGradient id="d" x1="0.5" y1="1" x2="0.5" gradientUnits="objectBoundingBox"><stop offset="0" stop-color="#727fff" stop-opacity="0"/><stop offset="1" stop-color="#2792f5" stop-opacity="0.2"/></linearGradient><filter id="e" x="-150.912" y="-108.223" width="231.783" height="240.168" filterUnits="userSpaceOnUse"><feOffset dy="3" input="SourceAlpha"/><feGaussianBlur stdDeviation="4" result="f"/><feFlood flood-color="#727fff"/><feComposite operator="in" in2="f"/><feComposite in="SourceGraphic"/></filter><linearGradient id="g" x1="0.5" x2="0.5" y2="1" gradientUnits="objectBoundingBox"><stop offset="0" stop-color="#727fff" stop-opacity="0.2"/><stop offset="1" stop-color="#2792f5" stop-opacity="0"/></linearGradient><filter id="h" x="57.865" y="-128.443" width="296.213" height="311.873" filterUnits="userSpaceOnUse"><feOffset dx="4" dy="8" input="SourceAlpha"/><feGaussianBlur stdDeviation="1" result="i"/><feFlood flood-color="#727fff" flood-opacity="0.341"/><feComposite operator="in" in2="i"/><feComposite in="SourceGraphic"/></filter><clipPath id="j"><rect class="a" width="364" height="251" transform="translate(0.326 0.002)"/></clipPath><linearGradient id="k" y1="0" y2="1" xlink:href="#c"/><linearGradient id="l" y1="0" y2="1" xlink:href="#d"/><filter id="m" x="1639.13" y="-108.223" width="231.782" height="240.168" filterUnits="userSpaceOnUse"><feOffset dy="3" input="SourceAlpha"/><feGaussianBlur stdDeviation="4" result="n"/><feFlood flood-color="#727fff"/><feComposite operator="in" in2="n"/><feComposite in="SourceGraphic"/></filter><linearGradient id="o" y1="1" y2="0" xlink:href="#g"/><filter id="p" x="1372.923" y="-128.443" width="296.213" height="311.873" filterUnits="userSpaceOnUse"><feOffset dx="4" dy="8" input="SourceAlpha"/><feGaussianBlur stdDeviation="1" result="q"/><feFlood flood-color="#727fff" flood-opacity="0.341"/><feComposite operator="in" in2="q"/><feComposite in="SourceGraphic"/></filter></defs><path class="b" d="M6,0H1720a0,0,0,0,1,0,0V234a0,0,0,0,1,0,0H0a0,0,0,0,1,0,0V6A6,6,0,0,1,6,0Z"/><g class="c" transform="translate(0 -0.001)"><g transform="translate(-138.912 -128.442)"><path class="d" d="M6.17.006,190.206,7.424a6.909,6.909,0,0,1,6.683,6.307l9.127,213.179a5.654,5.654,0,0,1-6.165,5.789L15.816,225.28a6.909,6.909,0,0,1-6.683-6.307L.005,5.794A5.654,5.654,0,0,1,6.17.006Z" transform="matrix(-0.891, 0.454, -0.454, -0.891, 396.344, 270.242)"/><g class="n" transform="matrix(1, 0, 0, 1, 138.91, 128.44)"><path class="e" d="M6.17.006,134.9,5.195a6.909,6.909,0,0,1,6.683,6.307L148,161.4a5.654,5.654,0,0,1-6.165,5.789L13.106,162A6.909,6.909,0,0,1,6.423,155.7L.005,5.794A5.654,5.654,0,0,1,6.17.006Z" transform="matrix(-0.89, 0.45, -0.45, -0.89, 68.87, 49.75)"/></g><g class="m" transform="matrix(1, 0, 0, 1, 138.91, 128.44)"><path class="f" d="M15.816,7.424,199.851.006a5.654,5.654,0,0,1,6.165,5.789l-9.127,213.18a6.909,6.909,0,0,1-6.683,6.307L6.17,232.7A5.654,5.654,0,0,1,.005,226.91L9.133,13.73A6.909,6.909,0,0,1,15.816,7.424Z" transform="matrix(-0.89, -0.45, 0.45, -0.89, 241.43, 172.43)"/></g></g></g><g class="g" transform="translate(1355.674 -0.001)"><g transform="translate(17.249 -128.442)"><path class="h" d="M15.816,7.424,199.851.006a5.654,5.654,0,0,1,6.165,5.789l-9.127,213.179a6.909,6.909,0,0,1-6.683,6.307L6.17,232.7a5.654,5.654,0,0,1-6.165-5.789L9.133,13.73A6.909,6.909,0,0,1,15.816,7.424Z" transform="matrix(0.891, 0.454, -0.454, 0.891, 195.291, 62.901)"/><g class="l" transform="matrix(1, 0, 0, 1, -1372.92, 128.44)"><path class="i" d="M13.106,5.195,141.839.006A5.654,5.654,0,0,1,148,5.794l-6.418,149.9A6.909,6.909,0,0,1,134.9,162L6.17,167.191A5.654,5.654,0,0,1,.005,161.4L6.423,11.5A6.909,6.909,0,0,1,13.106,5.195Z" transform="matrix(0.89, 0.45, -0.45, 0.89, 1727.04, -99.22)"/></g><g class="k" transform="matrix(1, 0, 0, 1, -1372.92, 128.44)"><path class="j" d="M6.17.006,190.206,7.424a6.909,6.909,0,0,1,6.683,6.307l9.127,213.18a5.654,5.654,0,0,1-6.165,5.789L15.816,225.281a6.909,6.909,0,0,1-6.683-6.307L.005,5.794A5.654,5.654,0,0,1,6.17.006Z" transform="matrix(0.89, -0.45, 0.45, 0.89, 1372.92, -34.91)"/></g></g></g></svg>