<svg xmlns="http://www.w3.org/2000/svg" width="16" height="16" viewBox="0 0 16 16">
    <defs>
        <style>.a,.b{fill:#ff2742;}.a{opacity:0.1;}</style>
    </defs>
    <g transform="translate(-443 -218)">
        <circle class="a" cx="8" cy="8" r="8" transform="translate(443 218)"/>
        <g transform="translate(446.136 177.075)">
            <path class="b" d="M188.141,842.812H183.5a.609.609,0,0,0,0,1.209h4.638a.609.609,0,0,0,0-1.209Z" transform="translate(-181.074 -790.681)"/>
            <path class="b" d="M9.2,46.707a.723.723,0,0,0-.12-.1.97.97,0,0,0-1.122,1.583c-.171.2-.8.892-1.1.807-.459-.13-.559-2.039-.566-2.188a.969.969,0,1,0-.611-.1c-.108.27-.541,1.3-.836,1.3s-.737-1.075-.83-1.314a.97.97,0,1,0-.8.078.642.642,0,0,0,.183.044s-.19,2-.626,2.105c-.373.09-.868-.525-1.015-.721a.969.969,0,0,0-.795-1.734.731.731,0,0,0-.621.484.967.967,0,0,0,.086,1.045.771.771,0,0,0,.279.247.946.946,0,0,0,.64.123c.035.265.4,2.892.97,2.921.539.027,4.313.011,4.981.011.622,0,1.116-2.846,1.116-2.846l.01-.078c.032,0,.064,0,.1,0a.965.965,0,0,0,.48-.128.584.584,0,0,0,.394-.422.966.966,0,0,0-.2-1.119Z"/>
        </g>
    </g>
</svg>
