<svg xmlns="http://www.w3.org/2000/svg" width="16" height="16" viewBox="0 0 16 16"><defs><style>.a,.b{fill:#2998ff;}.a{opacity:0.1;}</style></defs><g transform="translate(-443 -218)"><circle class="a" cx="8" cy="8" r="8" transform="translate(443 218)"/><path class="b" d="M119.533,97.632V96.544a.544.544,0,0,0-.544-.544h-5.445a.544.544,0,0,0-.544.544v7.615a.544.544,0,0,0,.544.544h5.988V97.632Zm-2.178,5.258h-2.9a.363.363,0,0,1,0-.726h2.9a.363.363,0,1,1,0,.726Zm0-2.176h-2.9a.363.363,0,1,1,0-.726h2.9a.363.363,0,1,1,0,.726Zm.726-2.176h-3.63a.363.363,0,1,1,0-.726h3.63a.363.363,0,1,1,0,.726Zm2.723-.726h-.544v6.89h.544a.546.546,0,0,0,.544-.544v-5.8A.546.546,0,0,0,120.8,97.813Z" transform="translate(333.826 125.648)"/></g></svg>