<svg xmlns="http://www.w3.org/2000/svg" xmlns:xlink="http://www.w3.org/1999/xlink" width="1200" height="64" viewBox="0 0 1200 64"><defs><style>.a{stroke:#e1e1e6;fill:url(#a);}.b{fill:url(#b);}.c{fill:url(#d);}.d{clip-path:url(#e);}.e{opacity:0.6;}.e,.f,.g{fill:url(#f);}.f{opacity:0.5;}.g{opacity:0.27;}.h{fill:#727fff;}.i{fill:#2998ff;}.j{opacity:0.4;}.j,.m{clip-path:url(#k);}.k{fill:none;stroke:#fff;}.l{fill:url(#l);}</style><linearGradient id="a" x1="0.987" y1="0.039" x2="-0.828" y2="1.395" gradientUnits="objectBoundingBox"><stop offset="0" stop-color="#3e4040"/><stop offset="1"/></linearGradient><linearGradient id="b" y1="0.5" x2="1" y2="0.5" gradientUnits="objectBoundingBox"><stop offset="0" stop-color="#fadeb8"/><stop offset="1" stop-color="#ffeece"/></linearGradient><linearGradient id="d" y1="0.5" x2="1" y2="0.5" gradientUnits="objectBoundingBox"><stop offset="0" stop-color="#c5caff"/><stop offset="1" stop-color="#c1e1ff"/></linearGradient><clipPath id="e"><path class="a" d="M4,0H248a4,4,0,0,1,4,4V64a0,0,0,0,1,0,0H0a0,0,0,0,1,0,0V4A4,4,0,0,1,4,0Z" transform="translate(90)"/></clipPath><linearGradient id="f" x1="0.5" y1="1" x2="0.5" gradientUnits="objectBoundingBox"><stop offset="0" stop-color="#fff"/><stop offset="1" stop-color="#fff" stop-opacity="0"/></linearGradient><clipPath id="k"><path class="b" d="M4,0H1196a4,4,0,0,1,4,4V64a0,0,0,0,1,0,0H0a0,0,0,0,1,0,0V4A4,4,0,0,1,4,0Z" transform="translate(360 290)"/></clipPath><linearGradient id="l" x1="-0.064" y1="0.415" x2="1" y2="0.415" gradientUnits="objectBoundingBox"><stop offset="0" stop-color="#c2daff"/><stop offset="1" stop-color="#c2deff" stop-opacity="0"/></linearGradient></defs><g transform="translate(-360 -127)"><path class="c" d="M4,0H1196a4,4,0,0,1,4,4V64a0,0,0,0,1,0,0H0a0,0,0,0,1,0,0V4A4,4,0,0,1,4,0Z" transform="translate(360 127)"/><g class="d" transform="translate(270 127)"><path class="e" d="M22.112,197.256l32.612,3.435L32.612,3.435,0,0Z" transform="matrix(-0.799, 0.602, -0.602, -0.799, 230.166, 52.665)"/><path class="e" d="M22.112,197.256l79.491,8.373L79.491,8.373,0,0Z" transform="matrix(-0.799, 0.602, -0.602, -0.799, 228.381, 90.784)"/><path class="f" d="M22.112,197.256l1.019.107L1.019.107,0,0Z" transform="matrix(-0.799, 0.602, -0.602, -0.799, 176.681, 41.691)"/><path class="g" d="M22.112,197.256l1.019.107L1.019.107,0,0Z" transform="matrix(-0.799, 0.602, -0.602, -0.799, 330.681, 66.237)"/><path class="e" d="M21.146,188.637l19.364,2.04L19.364,2.04,0,0Z" transform="matrix(-0.799, 0.602, -0.602, -0.799, 333.543, 70.312)"/></g><circle class="h" cx="5" cy="5" r="5" transform="translate(511 145)"/><circle class="i" cx="2" cy="2" r="2" transform="translate(510 162)"/><g class="j" transform="translate(0 -163)"><g transform="translate(-2617.999 925.403)"><g transform="translate(3839.999 -664.032)"><g transform="translate(0 0)"><path class="k" d="M4214.465-528.3c-34.79-7.7-69.8-8.717-104.72-8.491-26.708.18-54.16,1.237-80.358-7.1-18.348-5.835-33.819-16.945-49.839-28.7-9.688-7.109-20.045-14.812-31.587-9.193-12.976,6.323-22.342,22.966-32.149,33.93-13.358,14.924-28.628,26.86-47.1,30.347-9.559,1.808-19.166,1.461-28.714.036" transform="translate(-3840 613.555)"/><path class="k" d="M3840-513.1c9.383,1.385,18.812,1.77,28.192.126,18.2-3.194,33.235-14.534,46.617-28.545,9.883-10.354,19.468-26.064,32.5-32.094a19.037,19.037,0,0,1,9.469-1.809c7.855.519,15.175,5.659,22.167,10.472,11.239,7.743,22.21,15.116,34.036,20.674a109.924,109.924,0,0,0,15.855,6.049c26.192,7.6,53.584,6.319,80.285,6.106,23.894-.195,47.8.371,71.722,3.367a322.924,322.924,0,0,1,33.625,5.939" transform="translate(-3840 608.368)"/><path class="k" d="M3840-508.739a90.855,90.855,0,0,0,27.669.288c17.931-2.9,32.739-13.644,46.138-26.742,9.964-9.742,19.776-24.486,32.844-30.257a20.029,20.029,0,0,1,9.471-1.731c7.86.482,15.2,5.343,22.216,9.865,11.277,7.272,22.282,14.109,34.1,19.221a113.85,113.85,0,0,0,15.84,5.524c26.187,6.862,53.519,5.355,80.213,5.112,23.862-.227,47.758.463,71.7,3.7a320.064,320.064,0,0,1,34.278,6.444" transform="translate(-3840 603.184)"/><path class="k" d="M5188.894-251.486" transform="translate(-4687.789 404.744)"/><path class="k" d="M3840-504.376a94.124,94.124,0,0,0,27.148.452c17.663-2.6,32.253-12.754,45.659-24.939,10.053-9.136,20.076-22.927,33.191-28.42a21.092,21.092,0,0,1,9.473-1.652c7.863.443,15.22,5.029,22.264,9.258,11.315,6.8,22.355,13.1,34.165,17.768a118.864,118.864,0,0,0,15.826,5c26.179,6.117,53.45,4.4,80.138,4.116,23.831-.255,47.718.554,71.671,4.038a317.319,317.319,0,0,1,34.931,6.964" transform="translate(-3839.999 597.999)"/><path class="k" d="M3840-500.011a97.835,97.835,0,0,0,26.624.616c17.4-2.308,31.778-11.863,45.182-23.134,10.148-8.535,20.375-21.37,33.539-26.586a22.306,22.306,0,0,1,9.475-1.573c7.868.4,15.242,4.715,22.311,8.649,11.354,6.329,22.426,12.094,34.229,16.315a122.132,122.132,0,0,0,15.812,4.479c26.161,5.446,53.382,3.437,80.063,3.12,23.8-.276,47.676.645,71.647,4.375a315.448,315.448,0,0,1,35.583,7.5" transform="translate(-3840 592.814)"/><path class="k" d="M3840-495.646a102.117,102.117,0,0,0,26.1.78c17.126-2.009,31.313-10.969,44.706-21.33,10.252-7.934,20.674-19.811,33.887-24.751a23.606,23.606,0,0,1,9.476-1.492c7.872.367,15.265,4.4,22.36,8.041,11.392,5.855,22.491,11.118,34.291,14.86a126.134,126.134,0,0,0,15.8,3.955c26.154,4.718,53.314,2.477,79.988,2.127,23.769-.3,47.634.733,71.622,4.708a314.979,314.979,0,0,1,36.236,8.059" transform="translate(-3840 587.627)"/><path class="k" d="M3840-491.282a107.336,107.336,0,0,0,25.578.944c16.858-1.715,30.859-10.076,44.23-19.526,10.365-7.331,20.975-18.254,34.237-22.916a25.165,25.165,0,0,1,9.477-1.411c7.876.328,15.287,4.086,22.406,7.432,11.43,5.378,22.562,10.117,34.355,13.406a133.159,133.159,0,0,0,15.781,3.435c26.147,3.987,53.247,1.514,79.914,1.133,23.739-.332,47.592.818,71.6,5.038a314.9,314.9,0,0,1,36.889,8.633" transform="translate(-3840 582.44)"/><path class="k" d="M3840-486.918a113.455,113.455,0,0,0,25.054,1.109c16.59-1.419,30.418-9.174,43.755-17.722,10.486-6.72,21.272-16.7,34.585-21.079a26.91,26.91,0,0,1,9.479-1.334c7.88.289,15.309,3.771,22.454,6.824,11.468,4.908,22.633,9.116,34.417,11.954a141.916,141.916,0,0,0,15.767,2.913c26.14,3.252,53.178.551,79.838.139,23.708-.36,47.551.905,71.571,5.373a314.336,314.336,0,0,1,37.545,9.225" transform="translate(-3840 577.255)"/><path class="k" d="M3840-482.553a120.892,120.892,0,0,0,24.531,1.275c16.322-1.122,29.987-8.263,43.281-15.92,10.618-6.109,21.571-15.153,34.936-19.242a28.959,28.959,0,0,1,9.481-1.255c7.884.253,15.331,3.457,22.5,6.215a212.633,212.633,0,0,0,34.479,10.5,152.319,152.319,0,0,0,15.753,2.391c26.134,2.516,53.109-.412,79.76-.856,23.677-.388,47.509.994,71.549,5.706a313.826,313.826,0,0,1,38.2,9.835" transform="translate(-3839.999 572.068)"/><path class="k" d="M3840-478.188a130.106,130.106,0,0,0,24.007,1.441c16.054-.827,29.569-7.341,42.807-14.112,10.757-5.5,21.87-13.6,35.286-17.409a31.354,31.354,0,0,1,9.483-1.177c7.889.214,15.353,3.142,22.547,5.606a210.755,210.755,0,0,0,34.539,9.048c5.118.851,10.343,1.5,15.737,1.87,26.127,1.782,53.039-1.376,79.684-1.853,23.646-.413,47.466,1.083,71.524,6.042a313.5,313.5,0,0,1,38.848,10.463" transform="translate(-3840 566.88)"/><path class="k" d="M3840-473.826a141.525,141.525,0,0,0,23.483,1.606c15.784-.532,29.16-6.41,42.333-12.307,10.905-4.879,22.168-12.055,35.637-15.574a34.316,34.316,0,0,1,9.484-1.1c7.893.175,15.375,2.828,22.593,5a209.673,209.673,0,0,0,34.6,7.594c5.121.657,10.342,1.127,15.722,1.349,26.121,1.049,52.969-2.342,79.606-2.846,23.615-.444,47.426,1.166,71.5,6.375a313,313,0,0,1,39.277,11.032l.225.081" transform="translate(-3840 561.695)"/><path class="k" d="M3840-469.463a156.4,156.4,0,0,0,22.959,1.773c15.515-.239,28.762-5.466,41.861-10.5,11.061-4.25,22.465-10.507,35.987-13.742a37.9,37.9,0,0,1,9.487-1.019c7.9.139,15.4,2.513,22.639,4.389a209.323,209.323,0,0,0,34.662,6.142c5.124.46,10.341.757,15.706.827,26.116.313,52.9-3.306,79.531-3.841,23.583-.475,47.382,1.258,71.476,6.713A312.454,312.454,0,0,1,4213.5-467.3l.965.357" transform="translate(-3840 556.51)"/><path class="k" d="M3840-465.1a176.055,176.055,0,0,0,22.436,1.936c15.247.063,28.372-4.506,41.39-8.695,11.224-3.611,22.764-8.961,36.34-11.906a42.283,42.283,0,0,1,9.489-.938c7.9.1,15.417,2.2,22.685,3.78a210.093,210.093,0,0,0,34.721,4.689c5.128.263,10.341.388,15.69.3,26.11-.421,52.83-4.27,79.453-4.835,23.552-.505,47.34,1.353,71.452,7.05a312.147,312.147,0,0,1,39.11,11.809q.85.323,1.7.65" transform="translate(-3840 551.323)"/><path class="k" d="M3840-460.716a198.1,198.1,0,0,0,21.911,2.085c14.979.4,27.989-3.531,40.918-6.888,11.393-2.954,23.064-7.417,36.692-10.074a47.7,47.7,0,0,1,9.49-.857c7.905.058,15.438,1.883,22.73,3.17a211.292,211.292,0,0,0,34.781,3.238c5.131.065,10.34.018,15.674-.219,26.1-1.165,52.759-5.229,79.375-5.831A270.894,270.894,0,0,1,4173-468.706a312.815,312.815,0,0,1,39.028,12.2q1.219.476,2.438.963" transform="translate(-3840 546.136)"/><path class="k" d="M3840-461.945c7.2,1,14.321,1.922,21.386,2.251,14.71.691,27.611-2.537,40.448-5.081,11.565-2.287,23.362-5.879,37.045-8.241a55,55,0,0,1,9.492-.778c7.91.022,15.459,1.568,22.775,2.562a213.387,213.387,0,0,0,34.839,1.783c5.135-.13,10.339-.351,15.658-.741,26.1-1.907,52.687-6.187,79.3-6.825a260.49,260.49,0,0,1,71.4,7.726,313.218,313.218,0,0,1,38.945,12.587q1.589.638,3.175,1.292" transform="translate(-3840 546.544)"/><path class="k" d="M3840-463.641c7.032.981,13.973,1.948,20.862,2.416,14.441.987,27.235-1.527,39.979-3.274,11.74-1.6,23.661-4.34,37.4-6.408a64.525,64.525,0,0,1,9.494-.7c7.914-.016,15.48,1.255,22.821,1.955a216.611,216.611,0,0,0,34.9.328c5.137-.329,10.338-.72,15.642-1.264,26.09-2.654,52.614-7.145,79.216-7.817a250.868,250.868,0,0,1,71.382,8.06,313.539,313.539,0,0,1,38.863,12.98q1.956.806,3.909,1.639" transform="translate(-3840 547.419)"/><path class="k" d="M3840-465.337c6.861.966,13.625,1.976,20.337,2.581,14.168,1.282,26.851-2.4,39.511-1.466,11.918.887,23.956-2.8,37.752-4.574a78.837,78.837,0,0,1,9.5-.62c7.918-.055,15.5.94,22.865,1.346a220.741,220.741,0,0,0,34.955-1.125c5.141-.525,10.337-1.091,15.626-1.788,26.083-3.4,52.543-8.107,79.138-8.808a241.864,241.864,0,0,1,71.358,8.393,313.584,313.584,0,0,1,38.781,13.375q2.325.984,4.645,2" transform="translate(-3840 548.293)"/><path class="k" d="M3840-467.033c6.689.952,13.277,2.006,19.813,2.746,13.9,1.578,26.546-1.251,39.042.343,12.02,1.535,24.256-1.261,38.106-2.741,3.176-.341,6.337-.5,9.5-.541,7.922-.093,15.522.626,22.91.737a224.957,224.957,0,0,0,35.012-2.577c5.144-.723,10.335-1.463,15.609-2.31,26.076-4.152,52.471-9.068,79.058-9.8a233.716,233.716,0,0,1,71.336,8.727,313.782,313.782,0,0,1,38.7,13.77q2.7,1.171,5.383,2.392" transform="translate(-3840 549.167)"/><path class="k" d="M3840-468.728c6.518.941,12.929,2.04,19.287,2.912,13.633,1.873,26.1,1.6,38.575,2.149a293.167,293.167,0,0,0,38.462-.908c3.171-.269,6.333-.407,9.5-.463,7.927-.13,15.543.311,22.954.13,11.867-.277,23.4-1.956,35.069-4.03,5.146-.917,10.333-1.839,15.592-2.831,26.066-4.9,52.4-10.031,78.978-10.8a226.049,226.049,0,0,1,71.313,9.062,314.013,314.013,0,0,1,38.618,14.165q3.064,1.365,6.117,2.794" transform="translate(-3840 550.042)"/><path class="k" d="M3840-470.438c6.347.929,12.581,2.076,18.762,3.091,13.369,2.14,25.713,2.678,38.109,3.958a228.247,228.247,0,0,0,38.817.924c3.166-.2,6.331-.312,9.5-.384,7.93-.169,15.563,0,23-.48,11.9-.746,23.465-2.966,35.126-5.484,5.149-1.11,10.331-2.213,15.575-3.352,26.056-5.659,52.327-10.994,78.9-11.789a218.9,218.9,0,0,1,71.291,9.4A314.48,314.48,0,0,1,4207.612-460q3.435,1.568,6.854,3.217" transform="translate(-3840 550.917)"/><path class="k" d="M3840-472.132c6.175.923,12.232,2.114,18.237,3.255,13.1,2.437,25.317,3.764,37.643,5.768a189.355,189.355,0,0,0,39.172,2.755c3.161-.131,6.327-.219,9.5-.306,7.935-.206,15.583-.317,23.042-1.088,11.937-1.219,23.53-3.977,35.181-6.937q7.727-1.953,15.56-3.873c26.046-6.413,52.252-11.957,78.815-12.781a212.174,212.174,0,0,1,71.268,9.736,314.435,314.435,0,0,1,38.457,14.95q3.8,1.781,7.59,3.66" transform="translate(-3840 551.792)"/><path class="k" d="M3840-473.824c6,.918,11.882,2.153,17.711,3.416,12.832,2.735,24.912,4.859,37.177,7.576,12.729,2.825,25.469,5.032,39.529,4.588,3.157-.1,6.324-.126,9.507-.224a209.751,209.751,0,0,0,23.084-1.7c11.972-1.691,23.6-4.988,35.237-8.391q7.73-2.25,15.542-4.4c26.034-7.164,52.178-12.922,78.734-13.776a206.115,206.115,0,0,1,71.246,10.076,314.576,314.576,0,0,1,38.376,15.341q4.174,2,8.322,4.122" transform="translate(-3840 552.667)"/><path class="k" d="M3840-475.513c5.829.916,11.533,2.2,17.185,3.577,12.564,3.032,24.5,5.962,36.713,9.386,12.865,3.609,25.766,6.383,39.885,6.418,3.155.01,6.322-.031,9.509-.144a161.936,161.936,0,0,0,23.128-2.306c12.007-2.165,23.654-6.027,35.292-9.846,5.153-1.71,10.324-3.337,15.525-4.917,26.022-7.92,52.1-13.884,78.652-14.769a200.356,200.356,0,0,1,71.224,10.415,315.53,315.53,0,0,1,38.3,15.732q4.544,2.233,9.057,4.605" transform="translate(-3840 553.54)"/><path class="k" d="M3840-477.2a160.366,160.366,0,0,1,16.659,3.735c12.3,3.33,24.072,7.071,36.25,11.2,12.992,4.4,26.071,7.912,40.242,8.249,3.15.078,6.319.062,9.511-.065A132.619,132.619,0,0,0,3965.832-457c12.041-2.637,23.719-7.035,35.346-11.3q7.732-2.859,15.508-5.439c25.994-8.734,52.03-14.843,78.569-15.764a195.042,195.042,0,0,1,71.2,10.754,316.214,316.214,0,0,1,38.218,16.125q4.915,2.472,9.789,5.108" transform="translate(-3840 554.413)"/><path class="k" d="M3840-478.884a128.731,128.731,0,0,1,16.133,3.895c12.027,3.627,23.634,8.182,35.787,13.007,13.109,5.206,26.375,9.433,40.6,10.08,3.146.143,6.316.156,9.513.013a113.119,113.119,0,0,0,23.214-3.523c12.075-3.11,23.784-8.043,35.4-12.752q7.736-3.159,15.49-5.962c25.982-9.476,51.956-15.8,78.487-16.755a189.973,189.973,0,0,1,71.18,11.09,315.8,315.8,0,0,1,38.139,16.521q5.284,2.72,10.523,5.628" transform="translate(-3840 555.283)"/><path class="k" d="M3840-480.564a106.537,106.537,0,0,1,15.607,4.052c11.758,3.924,23.188,9.3,35.324,14.817,13.217,6.012,26.681,10.934,40.958,11.91a83.377,83.377,0,0,0,9.516.092,99.224,99.224,0,0,0,23.255-4.132c12.109-3.582,23.848-9.049,35.454-14.206q7.739-3.451,15.472-6.483c25.972-10.22,51.881-16.762,78.4-17.748a185.18,185.18,0,0,1,71.158,11.426,316.243,316.243,0,0,1,38.061,16.919q5.657,2.975,11.257,6.167" transform="translate(-3840 556.152)"/><path class="k" d="M3840-482.258c17.033,3.075,32.6,11.956,49.943,20.831,16.231,8.317,32.99,14.889,50.834,13.913,20.673-1.129,39.949-11.294,58.8-20.4,53.818-25.942,106.866-35.564,164.912-13.984a328.766,328.766,0,0,1,49.972,24.021" transform="translate(-3840 557.039)"/><path class="k" d="M4214.465-460.116a381.627,381.627,0,0,0-37.367-17.921q-6.434-2.664-12.905-5.1a226.135,226.135,0,0,0-42.6-11.657,172.155,172.155,0,0,0-55.773-.415c-19.1,3.008-37.949,9.936-56.6,18.652q-4.864,2.3-9.729,4.775c-18.8,9.594-37.931,20.292-58.547,22.127-17.8,1.589-34.665-4.394-51.077-12.209-17.267-8.25-32.911-16.657-49.87-19.693" transform="translate(-3840 559.226)"/><path class="k" d="M4214.466-462.951c-12.261-6.283-24.795-11.916-37.547-16.991q-6.522-2.585-13.025-5.035a290.929,290.929,0,0,0-42.526-12.736c-18.54-3.875-36.694-5.253-55.413-2.764-19.3,2.508-38.347,10.09-56.847,19.209q-4.86,2.4-9.7,5.016c-18.746,10.085-37.731,21.316-58.289,23.855-17.749,2.2-34.729-3.192-51.322-10.506-17.185-7.638-32.905-15.579-49.795-18.562" transform="translate(-3840 562.023)"/><path class="k" d="M4214.465-466.247c-12.334-5.9-24.929-11.182-37.727-16.075q-6.606-2.509-13.145-4.974a405.739,405.739,0,0,0-42.45-13.815c-18.274-4.634-36.191-7.139-55.052-5.114-19.509,2.009-38.736,10.271-57.1,19.767-3.235,1.677-6.453,3.437-9.674,5.256-18.694,10.573-37.532,22.34-58.032,25.584-17.7,2.813-34.806-1.941-51.566-8.8-17.117-6.992-32.9-14.485-49.721-17.419" transform="translate(-3840 565.294)"/><path class="k" d="M4214.466-469.832c-12.408-5.516-25.063-10.46-37.908-15.173q-6.691-2.432-13.263-4.915c-14.822-5.567-28.759-10.82-42.376-14.893-18.005-5.381-35.682-8.972-54.691-7.465-19.709,1.565-39.127,10.452-57.35,20.324-3.23,1.753-6.437,3.6-9.646,5.5-18.64,11.06-37.333,23.362-57.775,27.312-17.657,3.423-34.871-.727-51.81-7.1-17.04-6.4-32.886-13.441-49.647-16.3" transform="translate(-3840 568.871)"/><path class="k" d="M4214.463-473.67c-12.482-5.143-25.195-9.751-38.085-14.288q-6.775-2.355-13.382-4.857c-14.908-5.6-28.769-11.29-42.3-15.969-17.734-6.123-35.178-10.848-54.33-9.814-19.917,1.074-39.517,10.639-57.6,20.88-3.225,1.831-6.422,3.76-9.619,5.742-18.585,11.551-37.133,24.386-57.517,29.041-17.61,4.033-34.936.487-52.054-5.4-16.962-5.817-32.865-12.417-49.573-15.188" transform="translate(-3840 572.715)"/><path class="k" d="M4848-397.417h0" transform="translate(-4473.532 496.463)"/><path class="k" d="M4214.458-477.665c-12.554-4.771-25.326-9.049-38.261-13.412q-6.858-2.281-13.5-4.795c-15-5.639-28.779-11.761-42.227-17.051-17.461-6.854-34.672-12.725-53.969-12.164-20.125.584-39.907,10.828-57.852,21.438-3.221,1.908-6.406,3.921-9.593,5.984-18.53,12.038-36.932,25.409-57.259,30.767-17.564,4.646-35,1.7-52.3-3.692-16.885-5.252-32.841-11.416-49.5-14.089" transform="translate(-3840 576.727)"/><path class="k" d="M4847.984-397.37v0" transform="translate(-4473.524 496.434)"/><path class="k" d="M4847.988-397.367h0" transform="translate(-4473.526 496.431)"/><path class="k" d="M4214.463-481.759c-12.629-4.409-25.462-8.363-38.445-12.556q-6.943-2.2-13.619-4.732c-15.085-5.678-28.791-12.225-42.153-18.131-17.189-7.577-34.169-14.6-53.608-14.514-20.333.092-40.3,11.021-58.1,22-3.216,1.986-6.39,4.082-9.563,6.224-18.477,12.528-36.733,26.434-57,32.5-17.517,5.256-35.064,2.912-52.542-1.99-16.808-4.7-32.812-10.434-49.425-13" transform="translate(-3840 580.856)"/><path class="k" d="M4214.464-485.942c-12.7-4.057-25.591-7.693-38.626-11.685q-7.024-2.143-13.736-4.671c-15.172-5.717-28.8-12.684-42.08-19.212-16.915-8.291-33.664-16.485-53.247-16.865-20.541-.4-40.685,11.215-58.356,22.554-3.211,2.064-6.374,4.242-9.535,6.468-18.424,13.017-36.533,27.457-56.745,34.224-17.471,5.868-35.127,4.122-52.784-.286-16.732-4.163-32.78-9.473-49.353-11.919" transform="translate(-3840 585.062)"/><path class="k" d="M4214.466-490.133c-12.773-3.706-25.724-7.03-38.807-10.85q-7.108-2.067-13.855-4.612c-15.26-5.754-28.812-13.133-42.006-20.289-16.644-9-33.16-18.367-52.885-19.215-20.752-.9-41.076,11.409-58.609,23.109-3.207,2.142-6.358,4.4-9.508,6.71-18.37,13.5-36.332,28.479-56.487,35.952-17.424,6.48-35.189,5.333-53.029,1.418-16.656-3.641-32.744-8.534-49.278-10.852" transform="translate(-3840 589.31)"/><path class="k" d="M4214.465-494.35c-12.845-3.359-25.855-6.376-38.985-10.027q-7.194-1.989-13.974-4.549c-15.347-5.787-28.823-13.585-41.933-21.37-16.372-9.7-32.654-20.249-52.523-21.566-20.961-1.391-41.464,11.608-58.862,23.667-3.2,2.222-6.342,4.563-9.48,6.953-18.315,13.992-36.132,29.5-56.23,37.679-17.378,7.091-35.25,6.538-53.271,3.121-16.582-3.132-32.706-7.613-49.206-9.8" transform="translate(-3840 593.597)"/><path class="k" d="M4214.466-498.581c-12.918-3.017-25.988-5.733-39.165-9.218a142.736,142.736,0,0,1-14.092-4.488c-15.435-5.822-28.837-14.026-41.86-22.448-16.1-10.4-32.148-22.134-52.161-23.918-21.172-1.889-41.854,11.807-59.116,24.225-3.2,2.3-6.326,4.724-9.452,7.194-18.26,14.482-35.932,30.527-55.972,39.408-17.333,7.7-35.314,7.744-53.516,4.823-16.507-2.636-32.663-6.714-49.131-8.753" transform="translate(-3840 597.911)"/><path class="k" d="M4214.465-502.821c-12.99-2.679-26.12-5.1-39.344-8.421a127.944,127.944,0,0,1-14.209-4.424c-15.523-5.855-28.854-14.465-41.789-23.528-15.838-11.085-31.641-24.019-51.8-26.269-21.383-2.387-42.239,12.013-59.368,24.783-3.19,2.379-6.311,4.886-9.425,7.437-18.206,14.97-35.73,31.55-55.713,41.136-17.286,8.317-35.376,8.946-53.759,6.527-16.436-2.153-32.62-5.831-49.059-7.72" transform="translate(-3840 602.245)"/><path class="k" d="M4214.466-507.068c-13.062-2.346-26.25-4.473-39.523-7.633a116.393,116.393,0,0,1-14.327-4.365c-15.61-5.889-28.872-14.9-41.715-24.607-15.576-11.767-31.136-25.906-51.437-28.621-21.594-2.885-42.629,12.216-59.622,25.341-3.184,2.456-6.3,5.046-9.4,7.677-18.151,15.459-35.529,32.574-55.455,42.864-17.24,8.928-35.438,10.149-54,8.231-16.364-1.681-32.574-4.968-48.986-6.7" transform="translate(-3840 606.599)"/><path class="k" d="M4214.465-511.322c-13.134-2.016-26.382-3.855-39.7-6.856a106.755,106.755,0,0,1-14.446-4.3c-15.7-5.922-28.892-15.327-41.643-25.685-15.318-12.443-30.628-27.8-51.074-30.971-21.806-3.386-43.017,12.42-59.877,25.9-3.177,2.538-6.279,5.206-9.369,7.919-18.1,15.948-35.328,33.6-55.2,44.592-17.195,9.541-35.5,11.349-54.245,9.934-16.293-1.221-32.526-4.123-48.913-5.694" transform="translate(-3840 610.968)"/><path class="k" d="M4214.465-515.579c-13.207-1.691-26.513-3.245-39.88-6.09a99,99,0,0,1-14.562-4.24c-15.785-5.958-28.918-15.752-41.571-26.766-15.063-13.113-30.12-29.685-50.712-33.323-22.017-3.887-43.4,12.627-60.13,26.456-3.172,2.617-6.264,5.367-9.342,8.161-18.041,16.436-35.126,34.621-54.939,46.321-17.149,10.152-35.561,12.548-54.488,11.637-16.223-.773-32.476-3.295-48.84-4.7" transform="translate(-3840 615.35)"/><path class="k" d="M4214.465-519.809c-13.28-1.362-26.646-2.635-40.059-5.358a91.209,91.209,0,0,1-14.681-4.18c-15.872-5.99-28.947-16.17-41.5-27.844-14.813-13.782-29.611-31.572-50.349-35.674-22.23-4.39-43.786,12.839-60.385,27.014-3.165,2.7-6.247,5.527-9.313,8.4-17.986,16.926-34.926,35.645-54.681,48.048-17.1,10.767-35.623,13.746-54.73,13.343-16.155-.335-32.425-2.484-48.768-3.717" transform="translate(-3840 619.741)"/><path class="k" d="M4214.465-524.065c-13.352-1.044-26.776-2.041-40.237-4.609a85.962,85.962,0,0,1-14.8-4.12c-15.96-6.021-28.981-16.586-41.429-28.925-14.567-14.446-29.1-33.462-49.987-38.023-22.441-4.894-44.171,13.05-60.639,27.571-3.158,2.779-6.232,5.689-9.285,8.645-17.932,17.415-34.724,36.668-54.423,49.776-17.056,11.379-35.685,14.941-54.972,15.045-16.088.092-32.373-1.69-48.7-2.747" transform="translate(-3840 624.143)"/><path class="k" d="M4214.465-528.322c-13.423-.73-26.906-1.454-40.416-3.87a81.114,81.114,0,0,1-14.914-4.06c-16.047-6.054-29.019-17-41.358-30-14.327-15.108-28.593-35.355-49.623-40.376-22.655-5.4-44.556,13.261-60.895,28.129-3.151,2.859-6.215,5.849-9.258,8.885-17.875,17.9-34.522,37.692-54.164,51.5-17.011,11.991-35.749,16.136-55.216,16.748-16.022.51-32.319-.911-48.623-1.789" transform="translate(-3840 628.553)"/><path class="k" d="M4214.464-532.575c-13.494-.421-27.036-.875-40.593-3.141a77.137,77.137,0,0,1-15.031-4c-16.135-6.088-29.061-17.412-41.288-31.082-14.091-15.765-28.082-37.248-49.26-42.727-22.866-5.906-44.94,13.475-61.15,28.687-3.144,2.939-6.2,6.01-9.229,9.128-17.821,18.391-34.319,38.713-53.906,53.233-16.965,12.6-35.812,17.329-55.458,18.451-15.957.917-32.265-.147-48.55-.844" transform="translate(-3840 632.97)"/><path class="k" d="M4214.464-536.827c-13.565-.115-27.166-.3-40.771-2.42a73.666,73.666,0,0,1-15.149-3.936c-16.221-6.121-29.105-17.824-41.217-32.162-13.86-16.424-27.57-39.141-48.9-45.079-23.078-6.413-45.322,13.693-61.406,29.246-3.136,3.022-6.183,6.17-9.2,9.368-17.765,18.881-34.118,39.738-53.646,54.961-16.92,13.215-35.876,18.522-55.7,20.155-15.893,1.316-32.21.6-48.479.089" transform="translate(-3840 637.394)"/><path class="k" d="M4214.465-541.076c-13.636.188-27.3.263-40.95-1.705a70.565,70.565,0,0,1-15.264-3.877c-16.31-6.153-29.155-18.232-41.147-33.243-13.632-17.08-27.058-41.034-48.534-47.428-23.289-6.922-45.7,13.908-61.66,29.8-3.128,3.1-6.167,6.331-9.173,9.611-17.709,19.37-33.915,40.761-53.389,56.69-16.874,13.827-35.94,19.709-55.942,21.858-15.829,1.7-32.153,1.332-48.406,1.009" transform="translate(-3840 641.823)"/><path class="k" d="M4214.465-545.346c-13.707.488-27.424.822-41.127-1a67.773,67.773,0,0,1-15.382-3.816c-16.4-6.185-29.208-18.64-41.077-34.321-13.408-17.737-26.537-42.971-48.168-49.78-23.492-7.477-46.086,14.126-61.918,30.36-3.12,3.184-6.15,6.492-9.145,9.852-17.654,19.858-33.713,41.786-53.13,58.418-16.829,14.439-36,20.9-56.184,23.562-15.765,2.084-32.1,2.05-48.334,1.917" transform="translate(-3840 646.281)"/><path class="k" d="M4214.465-549.583c-13.778.785-27.554,1.375-41.306-.3a65.275,65.275,0,0,1-15.5-3.755c-16.482-6.221-29.267-19.045-41.007-35.4-13.19-18.4-26.025-44.856-47.805-52.131-23.705-7.978-46.467,14.343-62.174,30.917-3.112,3.268-6.134,6.653-9.115,10.094-17.6,20.346-33.511,42.808-52.871,60.146-16.783,15.052-36.075,22.046-56.426,25.264-15.706,2.421-32.041,2.722-48.262,2.791" transform="translate(-3840 650.714)"/><path class="k" d="M4214.465-553.81c-13.848,1.077-27.683,1.918-41.484.385a63.049,63.049,0,0,1-15.613-3.693c-16.568-6.257-29.327-19.451-40.938-36.48-12.975-19.053-25.512-46.739-47.44-54.483-23.918-8.477-46.817,14.6-62.431,31.475-3.1,3.356-6.118,6.814-9.088,10.335-17.542,20.836-33.308,43.832-52.613,61.874-16.737,15.663-36.139,23.248-56.667,26.97-15.643,2.794-31.983,3.421-48.191,3.681" transform="translate(-3840 655.146)"/><path class="k" d="M4214.465-558.04c-13.918,1.365-27.811,2.456-41.661,1.067a60.893,60.893,0,0,1-15.73-3.633c-16.655-6.291-29.393-19.856-40.87-37.561-12.763-19.71-25-48.622-47.076-56.832-24.133-8.976-47.209,14.8-62.687,32.033-3.091,3.437-6.1,6.975-9.06,10.576-17.487,21.325-33.1,44.856-52.353,63.6-16.693,16.276-36.206,24.448-56.91,28.671-15.576,3.161-31.923,4.111-48.119,4.562" transform="translate(-3840 659.587)"/><path class="k" d="M4214.465-562.266c-13.989,1.651-27.939,2.989-41.839,1.742-25.053-2.173-41.969-18.421-56.646-42.212-12.557-20.372-24.487-50.507-46.711-59.186-24.348-9.475-47.6,15.006-62.945,32.591-21.342,24.359-38.69,53.414-61.125,76.149-20.887,21.187-46.477,29.6-73.328,33.259-10.454,1.428-21.193,2.123-31.87,2.548" transform="translate(-3840 664.032)"/><path class="k" d="M4214.465-556.3c-13.575,1.405-27.122,2.619-40.609,1.7-25.7-1.667-42.9-14.719-58.748-37.455-13.531-19.4-26.18-49.844-48.992-58.141-24.631-8.92-48.332,15.2-63.774,31.25-21.467,22.219-38.251,49.633-60.4,71.059C3913.8-520.5,3876.55-515.745,3840-514.311" transform="translate(-3840 656.542)"/><path class="k" d="M4214.464-550.354c-13.164,1.184-26.306,2.294-39.377,1.683-26.359-1.157-43.824-11.023-60.849-32.707-14.5-18.437-27.865-49.186-51.267-57.087-24.907-8.382-49.017,15.366-64.606,29.911-21.556,20.036-37.811,45.852-59.68,65.962-27.428,25.363-63.3,29.961-98.684,31.338" transform="translate(-3840 649.06)"/><path class="k" d="M4214.466-544.42c-12.752.987-25.49,2.007-38.146,1.676-27.024-.635-44.746-7.326-62.949-27.957-15.454-17.472-29.541-48.531-53.535-56.029-25.176-7.84-49.65,15.486-65.44,28.576-21.6,17.832-37.371,42.054-58.975,60.863-26.692,23.358-61.215,27.783-95.421,29.1" transform="translate(-3840 641.577)"/><path class="k" d="M4214.465-538.5c-12.342.813-24.672,1.758-36.91,1.677-27.7-.1-45.665-3.634-65.05-23.2-16.4-16.506-31.207-47.876-55.794-54.969-25.442-7.314-50.223,15.584-66.277,27.24-21.577,15.621-36.929,38.251-58.279,55.763-25.942,21.375-59.127,25.606-92.155,26.86" transform="translate(-3840 634.1)"/><path class="k" d="M4214.465-532.589c-11.931.662-23.854,1.545-35.672,1.692-28.374.453-46.582.054-67.152-18.454-17.335-15.531-32.865-47.232-58.045-53.9-25.7-6.788-50.729,15.65-67.116,25.911-21.484,13.409-36.486,34.439-57.594,50.652-25.174,19.423-57.037,23.435-88.885,24.622" transform="translate(-3840 626.621)"/><path class="k" d="M4214.465-526.688c-11.521.531-23.033,1.362-34.432,1.714-29.056,1.017-47.5,3.739-69.254-13.7-18.265-14.57-34.516-46.58-60.29-52.827-25.96-6.266-51.163,15.7-67.958,24.582-21.31,11.228-36.037,30.62-56.919,45.543-24.388,17.5-54.944,21.266-85.611,22.381" transform="translate(-3840 619.144)"/><path class="k" d="M4214.464-520.8c-11.109.416-22.209,1.207-33.189,1.75-29.743,1.585-48.411,7.418-71.355-8.955-19.185-13.608-36.16-45.933-62.528-51.747-26.214-5.759-51.52,15.765-68.8,23.251-21.052,9.1-35.579,26.8-56.255,40.433-23.583,15.606-52.846,19.108-82.333,20.143" transform="translate(-3840 611.67)"/><path class="k" d="M4214.464-514.735c-10.7.321-21.384,1.082-31.945,1.8-30.434,2.161-49.325,11.088-73.458-4.211-20.1-12.649-37.8-45.285-64.758-50.662-26.481-5.241-51.144,19.627-69.65,21.927-19.279,11.2-35.1,22.961-55.6,35.314C3896.3-496.809,3868.31-493.6,3840-492.657" transform="translate(-3840 604.01)"/><path class="k" d="M4214.465-508.868c-10.285.243-20.557.985-30.7,1.853-31.125,2.757-50.238,14.753-75.559.531-21.009-11.686-39.427-44.643-66.982-49.569-26.734-4.746-51.582,20.21-70.5,20.6-19.04,9.546-34.625,19.134-54.955,30.2-21.911,11.956-48.635,14.842-75.769,15.686" transform="translate(-3840 596.544)"/><path class="k" d="M4214.464-503.013c-9.871.185-19.727.913-29.45,1.911-31.82,3.376-51.157,18.41-77.661,5.276-21.914-10.726-41.051-44.009-69.2-48.474-26.984-4.247-52.018,20.8-71.352,19.281-18.808,7.9-34.136,15.31-54.321,25.073-21.043,10.206-46.519,12.744-72.481,13.474" transform="translate(-3840 589.085)"/><path class="k" d="M4214.465-497.169a272.5,272.5,0,0,0-28.2,1.974c-32.517,4.01-52.076,22.057-79.765,10.017-22.812-9.775-42.669-43.363-71.408-47.368-27.233-3.763-52.454,21.371-72.206,17.96-18.578,6.242-33.632,11.491-53.7,19.948-20.154,8.516-44.4,10.679-69.19,11.277" transform="translate(-3840 581.634)"/><path class="k" d="M4214.465-491.34a221.145,221.145,0,0,0-26.945,2.041c-33.214,4.656-53,25.7-81.868,14.762-23.708-8.833-44.283-42.726-73.613-46.264-27.48-3.272-52.887,21.96-73.062,16.645-18.353,4.584-33.116,7.685-53.081,14.819-19.244,6.893-42.265,8.651-65.9,9.1" transform="translate(-3840 574.195)"/><path class="k" d="M4214.464-485.52a185.084,185.084,0,0,0-25.688,2.115c-33.912,5.306-53.924,29.326-83.971,19.5-24.6-7.889-45.892-42.1-75.81-45.151-27.727-2.8-53.321,22.545-73.922,15.325-18.132,2.932-32.584,3.9-52.474,9.689-18.316,5.35-40.128,6.677-62.6,6.958" transform="translate(-3840 566.765)"/><path class="k" d="M4215.407-479.715a158.358,158.358,0,0,0-24.431,2.19c-34.607,5.971-54.854,32.949-86.075,24.236-25.492-6.944-47.495-41.461-78-44.037-27.973-2.317-53.753,23.128-74.783,14.015-17.917,1.274-32.041.13-51.878,4.556-17.22,3.852-37.625,4.744-58.74,4.845" transform="translate(-3840.942 559.35)"/><path class="k" d="M4214.464-473.916a137.782,137.782,0,0,0-23.17,2.266c-35.3,6.652-55.789,36.568-88.179,28.973-26.38-6-49.095-40.841-80.185-42.914-28.219-1.854-54.184,23.718-75.646,12.7-17.7-.387-31.488-3.6-51.291-.579-16.416,2.514-35.838,2.913-55.993,2.785" transform="translate(-3840 551.941)"/><path class="k" d="M4214.464-468.122a122.055,122.055,0,0,0-21.908,2.334c-36,7.35-56.73,40.18-90.284,33.711-27.265-5.07-50.69-40.2-82.363-41.79-28.463-1.378-54.614,24.3-76.512,11.394-17.5-2.047-30.931-7.294-50.713-5.72-15.453,1.238-33.69,1.148-52.685.782" transform="translate(-3840 544.546)"/><path class="k" d="M4214.464-465.56a109.271,109.271,0,0,0-20.642,2.4c-36.687,8.063-57.675,43.79-92.39,38.447-28.147-4.128-52.281-39.576-84.535-40.654-28.685-.906-53.28,20.362-77.379,10.083-16.558-7.012-30.385-10.941-50.145-10.86-14.489.065-31.543-.526-49.374-1.155" transform="translate(-3840 540.386)"/><path class="k" d="M4214.465-473.853a98.686,98.686,0,0,0-19.375,2.46c-37.376,8.786-58.626,47.386-94.494,43.177-29.031-3.187-53.87-38.952-86.7-39.521-28.931-.436-53.64,21.369-78.248,8.781-16.254-8.268-29.838-14.53-49.585-16-13.529-1-29.4-2.1-46.06-3.009" transform="translate(-3840 547.091)"/><path class="k" d="M4214.465-481.965a89.805,89.805,0,0,0-18.1,2.511c-38.063,9.525-59.583,50.978-96.6,47.9-29.913-2.248-55.453-38.328-88.863-38.374-29.178.018-54.078,22.434-79.12,7.474-16.01-9.512-29.314-18.062-49.036-21.151-12.577-1.961-27.271-3.554-42.741-4.768" transform="translate(-3840 553.628)"/><path class="k" d="M4214.464-489.867a82.329,82.329,0,0,0-16.831,2.549c-38.746,10.279-60.544,54.568-98.708,52.632-30.791-1.308-57.035-37.706-91.018-37.231-29.425.475-54.593,23.548-79.993,6.174-15.822-10.758-28.822-21.535-48.495-26.3a314.548,314.548,0,0,0-39.42-6.417" transform="translate(-3840 559.968)"/><path class="k" d="M4214.465-497.527a75.912,75.912,0,0,0-15.556,2.572c-39.426,11.049-61.511,58.152-100.815,57.363-31.668-.384-58.614-37.079-93.167-36.079-29.672.921-55.179,24.678-80.868,4.871-15.687-12.025-28.373-24.947-47.963-31.447a210.867,210.867,0,0,0-36.1-7.937" transform="translate(-3840 566.08)"/><path class="k" d="M4214.464-504.892a70.578,70.578,0,0,0-14.278,2.569c-40.1,11.835-62.484,61.731-102.923,62.094-32.543.553-60.187-36.464-95.31-34.927-29.919,1.375-55.827,25.811-81.746,3.575-15.6-13.311-27.976-28.314-47.439-36.6a157.043,157.043,0,0,0-32.768-9.3" transform="translate(-3840 571.925)"/><path class="k" d="M4214.465-511.92a65.75,65.75,0,0,0-13,2.552C4160.7-496.742,4138-444.16,4096.435-442.55c-33.422,1.413-61.759-35.843-97.449-33.766-30.166,1.815-56.525,26.937-82.623,2.278-15.554-14.618-27.639-31.645-46.925-41.757A125.243,125.243,0,0,0,3840-526.28" transform="translate(-3840 577.454)"/><path class="k" d="M4214.465-518.53a61.6,61.6,0,0,0-11.714,2.509c-41.438,13.426-64.45,68.816-107.142,71.538-34.294,2.375-63.329-35.223-99.582-32.605-30.413,2.262-57.269,28.057-83.5.988-15.547-15.952-27.366-34.954-46.42-46.914a105.542,105.542,0,0,0-26.1-11.444" transform="translate(-3840 582.594)"/><path class="k" d="M4214.464-524.626a57.919,57.919,0,0,0-10.428,2.434c-42.1,14.243-65.437,72.418-109.252,76.259-35.162,3.335-64.9-34.666-101.709-31.436-30.665,2.652-58.045,29.144-84.385-.306-15.571-17.312-27.155-38.251-45.925-52.07A93.57,93.57,0,0,0,3840-541.869" transform="translate(-3840 587.252)"/><path class="k" d="M4214.465-530.072a54.825,54.825,0,0,0-9.14,2.321c-42.757,15.084-66.431,76.017-111.364,80.979-36.027,4.3-66.458-33.98-103.831-30.263-30.909,3.138-58.847,30.208-85.268-1.593-15.622-18.7-27-41.556-45.438-57.231A87.377,87.377,0,0,0,3840-548.309" transform="translate(-3840 591.299)"/></g><rect class="l" width="209" height="61" transform="translate(0 30.629)"/></g></g></g></g></svg>