<svg xmlns="http://www.w3.org/2000/svg" xmlns:xlink="http://www.w3.org/1999/xlink" width="101.836" height="20.16" viewBox="0 0 101.836 20.16"><defs><style>.a{fill:url(#a);}</style><linearGradient id="a" x1="0.477" y1="1.136" x2="0.479" y2="0.116" gradientUnits="objectBoundingBox"><stop offset="0" stop-color="#354182"/><stop offset="1" stop-color="#727fff"/></linearGradient></defs><path class="a" d="M23.772-9.016,22.736-1.6a2.138,2.138,0,0,1-.77,1.33,2.169,2.169,0,0,1-1.414.518H15.54l1.9-2.072.7-5.068H6.44L5.432.252H.112L1.428-9.016ZM21.644-14.84l-.7,5.04H4.452l.7-5.04ZM11.228-18.312l.084-.532-.9-1.064H16.8l-.252,1.6H25.62l-.392,2.66H1.82l.392-2.66ZM16.716-6.076,16.1-1.568H7.028l.616-4.508Zm-.784-5.852.112-.812H10.22l-.112.812ZM12.88-3.416l.112-.812H10.864l-.112.812ZM44.576.252l-.7-1.2-.812,1.2H38.528l3.108-5.068-1.288-2.24L38.36.252H34.412l4.676-16.968H37.464l.364-2.66H51.072l-.364,2.66-1.736,3.164h1.82l-.392,2.66L46.48-4.956,49.42.252ZM28.028-13.44l3.64-5.74-.588-.7h5.852l-4.116,6.44h3.192L31.92-7.056h3.192L34.748-4.4h-7.98l.364-2.66,2.38-3.724H27.664ZM34.216-.672,26.18-.14l.364-2.66,8.064-.532Zm8.792-16.044-1.764,6.384h2.24l.728,1.344,1.176-1.9H43.12l2.548-5.824ZM68.88-.868l1.4-1.708.728-5.068H69.776L68.684.2H64.82l1.092-7.84H64.68L63.728-.868H59.976L61.236-9.8h4.956l.224-1.568H61.488l.336-2.464h13.8l-.336,2.464H70.28L70.056-9.8h5.012L74.06-2.772A2.107,2.107,0,0,1,73.3-1.414a2.191,2.191,0,0,1-1.456.546Zm-13.468-1.6,1.6-11.368h3.808L59.22-2.408,57.736.2H53.7ZM71.064-18.732h5.824l-.308,2.24H73.864l.868,1.68H70.476L69.692-16.3l-.812,1.484H64.092l2.38-4.256-.616-.784h5.852Zm-11.172,0h5.292l-.308,2.24H62.692l.868,1.68H59.3L58.52-16.3l-.812,1.484H52.92l2.38-4.256-.616-.784h5.852ZM56.308-12.46,55.132-3.948h-3.22l1.176-8.512Zm36.456-6.916-.84,2.66h2.044l.308-2.128-.924-1.064h5.32l-.448,3.192h3.724l-.336,2.38H97.888l-.364,2.688h4.256l-.336,2.38h-2.66L98.476-7.14H100.6L101.836-8.2l-.616,4.256H93.772l.756-5.32H92.9L90.58-3.948H86.324l2.324-5.32h-2.1l.336-2.38h6.384l.364-2.688H91.2L90.8-12.992H87.08l1.68-5.46-.784-.924ZM78.372-.224,79.8-2.884l1.344-9.576H80.08l.364-2.66H86.3L84.756-4.032l3.836,1.148h13.02l-.364,2.66h-14.9l-2.744-.812-.448.812Zm6.944-19.152,1.148,3.192H82.208L81.06-19.376Z" transform="translate(-0.112 19.908)"/></svg>