<svg xmlns="http://www.w3.org/2000/svg" width="20" height="16" viewBox="0 0 20 16"><defs><style>.a,.b{fill:#2998ff;}.a{opacity:0.1;}</style></defs><g transform="translate(-330 -597)"><rect class="a" width="20" height="16" rx="2" transform="translate(330 597)"/><path class="b" d="M73.158,42.667a1.526,1.526,0,0,1,1.526,1.526v8.14a1.526,1.526,0,0,1-1.526,1.526H66.544a1.527,1.527,0,0,1-1.505-1.272h.615a1.145,1.145,0,0,0,.054-2.288h-.69v-.89h.636A1.145,1.145,0,0,0,66.8,48.317v-.054a1.145,1.145,0,0,0-1.091-1.143h-.69v-.89h.636A1.145,1.145,0,0,0,66.8,45.137v-.054a1.145,1.145,0,0,0-1.091-1.143h-.669a1.527,1.527,0,0,1,1.505-1.272Zm-7.5,8.394a.382.382,0,0,1,0,.763H64.382a.382.382,0,0,1,0-.763Zm7.224-5.316a.763.763,0,0,0-1.079,0L68.143,49.4a.509.509,0,0,0-.144.292l-.1.761a.254.254,0,0,0,.29.286l.75-.113a.509.509,0,0,0,.284-.143l3.659-3.659a.763.763,0,0,0,0-1.079Zm-7.224,2.137a.382.382,0,1,1,0,.763H64.382a.382.382,0,1,1,0-.763Zm0-3.18a.382.382,0,0,1,0,.763H64.382a.382.382,0,0,1,0-.763Z" transform="translate(270.159 556.79)"/></g></svg>