<svg xmlns="http://www.w3.org/2000/svg" width="12" height="12" viewBox="0 0 12 12"><defs><style>.a{fill:#fff;}</style></defs><g transform="translate(-116.542 -111.284)"><path class="a" d="M872.8,755.625h0v0Z" transform="translate(-744.567 -642.307)"/><path class="a" d="M120.945,547.494a.084.084,0,0,1-.029.006H117.8a1.259,1.259,0,0,1-1.258-1.239.062.062,0,0,1,0-.009v-2.941a.349.349,0,0,1,.018-.113,1.254,1.254,0,0,1,1.24-1.044h3.115a.065.065,0,0,1,.026.005,1.241,1.241,0,0,1,1.135,1.027.364.364,0,0,1,.023.126v2.949a1.258,1.258,0,0,1-1.154,1.234m.379-1.311V543.47a.544.544,0,0,0-.545-.543h-2.915a.544.544,0,0,0-.545.543v2.713a.544.544,0,0,0,.545.542h2.915a.545.545,0,0,0,.545-.542" transform="translate(0 -430.87)"/><path class="a" d="M560.336,115.391a1.258,1.258,0,0,1-1.154,1.233.085.085,0,0,1-.029.006h-2.785a1.259,1.259,0,0,1-1.258-1.248v-2.941a.336.336,0,0,1,.018-.112,1.254,1.254,0,0,1,1.24-1.044h2.785a.067.067,0,0,1,.026,0,1.243,1.243,0,0,1,1.136,1.027.374.374,0,0,1,.022.126v2.949m-.776-.077V112.6a.544.544,0,0,0-.545-.543H556.43a.544.544,0,0,0-.545.543v2.713a.545.545,0,0,0,.545.543h2.586a.544.544,0,0,0,.545-.543" transform="translate(-431.793 6.654)"/><path class="a" d="M559.182,547.494a.086.086,0,0,1-.029.006h-2.785a1.259,1.259,0,0,1-1.258-1.248v-2.941a.336.336,0,0,1,.018-.113,1.254,1.254,0,0,1,1.24-1.044h2.785a.064.064,0,0,1,.026.005,1.242,1.242,0,0,1,1.136,1.027.374.374,0,0,1,.022.126v2.949a1.258,1.258,0,0,1-1.154,1.234m.378-1.311V543.47a.544.544,0,0,0-.545-.543H556.43a.544.544,0,0,0-.545.543v2.713a.544.544,0,0,0,.545.542h2.586a.544.544,0,0,0,.545-.542" transform="translate(-431.793 -430.87)"/><path class="a" d="M120.945,116.624a.083.083,0,0,1-.029.006H117.8a1.259,1.259,0,0,1-1.258-1.239.065.065,0,0,1,0-.009V112.44a.348.348,0,0,1,.018-.112,1.254,1.254,0,0,1,1.24-1.044h3.115a.068.068,0,0,1,.026,0,1.241,1.241,0,0,1,1.135,1.027.365.365,0,0,1,.023.126v2.949a1.258,1.258,0,0,1-1.154,1.233m.379-1.31V112.6a.544.544,0,0,0-.545-.543h-2.915a.544.544,0,0,0-.545.543v2.713a.545.545,0,0,0,.545.543h2.915a.545.545,0,0,0,.545-.543" transform="translate(0 6.655)"/></g></svg>