<svg xmlns="http://www.w3.org/2000/svg" width="20" height="20" viewBox="0 0 20 20"><defs><style>.a,.b,.c{fill:#ff2742;}.a{opacity:0;}.b{opacity:0.7;}</style></defs><g transform="translate(-1497 -814)"><rect class="a" width="20" height="20" rx="10" transform="translate(1497 814)"/><g transform="translate(1487.021 816.026)"><path class="b" d="M27.259,588.567a.887.887,0,0,0-.608-.216,2.772,2.772,0,0,0-1.369.488c-1.465.912-2.273,1.377-3.146,1.385a4.125,4.125,0,0,1-1.545-.368,15.365,15.365,0,0,1-1.729-.744,1.766,1.766,0,0,1-.36-.24l-.192-.192.224-.328.1-.032a1,1,0,0,1,.376-.056,7.382,7.382,0,0,1,1.809.4c.288.088.56.168.776.224a2,2,0,0,0,.44.048,1.1,1.1,0,0,0,1.217-.976c.008-.56-.512-.977-1.337-1.177-.44-.1-.816-.208-1.161-.3a8.189,8.189,0,0,0-2.321-.416,6.157,6.157,0,0,0-.936.072,13.3,13.3,0,0,0-5.339,2.809.642.642,0,0,1-.152.1l-.136.08a4.7,4.7,0,0,0,2.241,3.338c.04-.016.088-.04.128-.056l.048-.024c.256-.08.52-.152.784-.208a8.436,8.436,0,0,1,1.841-.208,5.809,5.809,0,0,1,1.729.376,8.788,8.788,0,0,0,2.729.528,6.891,6.891,0,0,0,4.17-1.753,10.688,10.688,0,0,1,.928-.648,1.719,1.719,0,0,0,.976-1.393.677.677,0,0,0-.192-.512Z" transform="translate(0 -576.926)"/><path class="c" d="M210.031,589.112a1.767,1.767,0,0,1-.36-.24l-.192-.192.224-.328.1-.032a1.018,1.018,0,0,1,.384-.056,7.388,7.388,0,0,1,1.809.4c.288.088.56.168.776.224a2.007,2.007,0,0,0,.44.048,1.1,1.1,0,0,0,1.217-.977c.008-.56-.512-.976-1.337-1.177-.44-.1-.816-.208-1.161-.3a8.187,8.187,0,0,0-2.321-.416,6.156,6.156,0,0,0-.936.072,8.261,8.261,0,0,0-2.6.977A6.479,6.479,0,0,0,211.4,589.9a3.056,3.056,0,0,0,.472-.024l-.136-.048A14.281,14.281,0,0,1,210.031,589.112Z" transform="translate(-191.176 -576.926)"/><path class="c" d="M137.975,8.512a6.589,6.589,0,0,1,1.369.16V7.727h-1.569a.429.429,0,0,1-.04-.856h1.617v-.76h-1.577a.429.429,0,0,1-.04-.856h.792l-.76-1.569a.426.426,0,0,1,.192-.568h.008a.429.429,0,0,1,.576.2l.944,1.945h.456l.944-1.945a.438.438,0,0,1,.584-.2.423.423,0,0,1,.2.568l-.76,1.569h.864a.429.429,0,0,1,0,.856h-1.569v.76h1.569a.429.429,0,0,1,0,.856h-1.569V8.872l.264.072c.32.088.7.192,1.137.3,1.121.264,1.825.976,1.833,1.809a1.54,1.54,0,0,1-.536,1.145,6.494,6.494,0,1,0-8.8-2.577l.024.048a8.911,8.911,0,0,1,2.825-1.081,7.435,7.435,0,0,1,1.025-.072Z" transform="translate(-119.536 0)"/></g></g></svg>