<svg xmlns="http://www.w3.org/2000/svg" width="40" height="40" viewBox="0 0 40 40"><defs><style>.a{fill:#fff;stroke:#e1e6e6;}.b{fill:#626a6a;}.c{stroke:none;}.d{fill:none;}</style></defs><g transform="translate(-1636 -221)"><g class="a" transform="translate(1636 221)"><circle class="c" cx="20" cy="20" r="20"/><circle class="d" cx="20" cy="20" r="19.5"/></g><path class="b" d="M310.577,143.085a.709.709,0,0,1-.509-.22l-6.558-6.757a.754.754,0,0,1,0-1.049l6.554-6.757a.709.709,0,0,1,1.022,0,.762.762,0,0,1,0,1.053l-6.045,6.228,6.045,6.228a.762.762,0,0,1,.157.811.724.724,0,0,1-.666.461Z" transform="translate(1348.702 105.915)"/></g></svg>