<svg xmlns="http://www.w3.org/2000/svg" width="14.001" height="14.001" viewBox="0 0 14.001 14.001">
    <defs>
        <style>.a-middle{fill:#2998ff;}.b-middle{opacity:0.7;}.c-middle{fill:#fff;}</style>
    </defs>
    <g transform="translate(0.003 0.001)">
        <path class="a-middle" d="M.531,9.672A7,7,0,1,1,7,14,6.993,6.993,0,0,1,.531,9.672Z"/>
        <g transform="translate(2.492 3.02)">
            <g class="b-middle">
                <path class="c-middle" d="M209.183,52.718l-1.848,2.42,1.915,1.217a.238.238,0,0,0,.243.007l2.3-1.278L209.579,52.7A.259.259,0,0,0,209.183,52.718Z" transform="translate(-205.254 -52.616)"/>
                <path class="c-middle" d="M208.916,65.2l-3.809,2.12a.237.237,0,0,1-.242-.007L201.7,65.3h0l-.753.977a.247.247,0,0,0,.063.36l3.789,2.407a.371.371,0,0,0,.374.014l4.607-2.476a.247.247,0,0,0,.063-.387Z" transform="translate(-200.897 -61.133)"/>
                <path class="c-middle" d="M210.117,61.4l-2.66,1.476a.216.216,0,0,1-.221-.007l-2.221-1.417-.657.852,2.892,1.837a.193.193,0,0,0,.194.007l3.5-1.872Z" transform="translate(-203.239 -58.561)"/>
            </g>
            <g transform="translate(1.119 2.84)">
                <path class="c-middle" d="M210.117,61.4l-2.66,1.476a.216.216,0,0,1-.221-.007l-2.221-1.417-.657.852,2.892,1.837a.193.193,0,0,0,.194.007l3.5-1.872Z" transform="translate(-204.358 -61.401)"/>
            </g>
        </g>
    </g>
</svg>