<svg xmlns="http://www.w3.org/2000/svg" width="14" height="14" viewBox="0 0 14 14">
    <defs>
        <style>.a-star{fill:#fff;}.b-star{fill:#2998ff;}</style>
    </defs>
    <g transform="translate(-361.999 -1126.999)">
        <g transform="translate(-212.998 570)">
            <circle class="a-star" cx="5" cy="5" r="5" transform="translate(577 559)"/>
            <path class="b-star" d="M7.006,14a7,7,0,1,1,7-6.979,7,7,0,0,1-7,6.979ZM4.29,10.182a.481.481,0,0,0,.229.4.435.435,0,0,0,.5,0c.611-.368,1.223-.733,1.83-1.105a.225.225,0,0,1,.268-.007c.611.366,1.228.724,1.839,1.092a.452.452,0,0,0,.554-.007.473.473,0,0,0,.177-.531c-.141-.6-.255-1.2-.425-1.787a.553.553,0,0,1,.21-.68c.506-.414.993-.854,1.473-1.3a.522.522,0,0,0,.141-.354c0-.269-.159-.408-.454-.435-.675-.062-1.35-.126-2.026-.166a.358.358,0,0,1-.356-.262q-.394-.956-.8-1.906a.445.445,0,0,0-.118-.168.489.489,0,0,0-.777.2c-.259.619-.519,1.238-.771,1.862-.071.177-.163.283-.373.265a2.56,2.56,0,0,0-.42.027c-.541.047-1.083.094-1.623.145a.418.418,0,0,0-.4.309.436.436,0,0,0,.138.505c.1.076.177.169.27.251.458.409.919.813,1.371,1.228A.284.284,0,0,1,4.8,8c-.051.265-.126.521-.186.783-.111.466-.214.933-.32,1.4Z" transform="translate(574.994 556.998)"/>
        </g>
    </g>
</svg>