<svg xmlns="http://www.w3.org/2000/svg" width="12" height="12.002" viewBox="0 0 12 12.002"><defs><style>.a{fill:#fff;}</style></defs><g transform="translate(-95.984 -95.984)"><path class="a" d="M580.63,192.913h-4.254a.472.472,0,0,1,0-.945h4.251a.472.472,0,0,1,0,.945Z" transform="translate(-473.116 -94.567)"/><path class="a" d="M580.63,352.886h-4.254a.472.472,0,0,1,0-.945h4.251a.472.472,0,0,1,0,.945Z" transform="translate(-473.116 -252.272)"/><path class="a" d="M580.63,609.015h-4.254a.472.472,0,0,1,0-.945h4.251a.472.472,0,0,1,0,.945Z" transform="translate(-473.116 -504.713)"/><path class="a" d="M580.63,768.988h-4.254a.472.472,0,0,1,0-.945h4.251a.472.472,0,0,1,0,.945Z" transform="translate(-473.116 -662.418)"/><path class="a" d="M100.235,101.653H97.4a1.418,1.418,0,0,1-1.417-1.417V97.4A1.418,1.418,0,0,1,97.4,95.984h2.834a1.418,1.418,0,0,1,1.417,1.417v2.834A1.418,1.418,0,0,1,100.235,101.653ZM97.4,96.929a.475.475,0,0,0-.472.472v2.834a.475.475,0,0,0,.472.472h2.834a.475.475,0,0,0,.472-.472V97.4a.475.475,0,0,0-.472-.472Z" transform="translate(0 0)"/><path class="a" d="M100.235,549.58H97.4a1.418,1.418,0,0,1-1.417-1.417v-2.837a1.418,1.418,0,0,1,1.417-1.417h2.834a1.418,1.418,0,0,1,1.417,1.417v2.834A1.42,1.42,0,0,1,100.235,549.58ZM97.4,544.854a.473.473,0,0,0-.472.472v2.834a.473.473,0,0,0,.472.472h2.834a.473.473,0,0,0,.472-.472v-2.834a.473.473,0,0,0-.472-.472Z" transform="translate(0 -441.594)"/></g></svg>