<svg xmlns="http://www.w3.org/2000/svg" width="40" height="40" viewBox="0 0 40 40"><defs><style>.a{fill:#fff;stroke:#e1e6e6;}.b{fill:#3d4242;}.c{fill:#727fff;}.d{stroke:none;}.e{fill:none;}</style></defs><g transform="translate(-1636 -333)"><g class="a" transform="translate(1636 333)"><circle class="d" cx="20" cy="20" r="20"/><circle class="e" cx="20" cy="20" r="19.5"/></g><path class="b" d="M.48.144,3.3-4.832h-1.5l.224-1.536H12.96L12.192-.912a1.175,1.175,0,0,1-.424.752,1.241,1.241,0,0,1-.824.3H7.776l1.44-1.488L9.7-4.832H6.336L3.52.144ZM3.9-6.816H.864L4.24-11.008l-.3-.368H7.584Zm7.936-4.56,2.4,4.56H11.2l-2.4-4.56Zm10.48.912,7.024-.912-.224,1.6-4.208.464L24.544-7.3h4.512l-.224,1.52H27.9l-.832,5.9H24.56l.832-5.9h-1.12l-1.04,5.9H20.416Zm-.72.96-.208,1.52Z" transform="translate(1642 359)"/><path class="c" d="M2.64-7.984H1.1L1.312-9.5H2.864l.192-1.376L2.7-11.344H5.6L5.344-9.5H6.88l-.208,1.52H5.12L3.984.144H1.5ZM.1-.432l1.28-7.184H2.384L1.1-.432ZM4.7-1.344l.624-6.272H6.336L5.712-1.344Z" transform="translate(1656.704 359)"/></g></svg>