<svg xmlns="http://www.w3.org/2000/svg" width="20" height="16" viewBox="0 0 20 16"><defs><style>.a,.b{fill:#00b354;}.a{opacity:0.1;}</style></defs><g transform="translate(-330 -597)"><rect class="a" width="20" height="16" rx="2" transform="translate(330 597)"/><path class="b" d="M61.139,3.487a.678.678,0,0,1,.213-.505.707.707,0,0,1,.511-.207h.724V6h-.724a.707.707,0,0,1-.511-.207.678.678,0,0,1-.212-.505v-1.8ZM69.18.524a1.669,1.669,0,0,1,.9-.517.908.908,0,0,1,.712.213,2.016,2.016,0,0,1,.528.758,6.139,6.139,0,0,1,.356,1.114,11.012,11.012,0,0,1,.207,1.286,12.572,12.572,0,0,1,.069,1.281,8.679,8.679,0,0,1-.086,1.218,7.246,7.246,0,0,1-.253,1.143,4.953,4.953,0,0,1-.391.936,1.77,1.77,0,0,1-.5.6.754.754,0,0,1-.592.138,1.239,1.239,0,0,1-.66-.448,2.545,2.545,0,0,0-.9-.649,7.858,7.858,0,0,0-1.241-.436,13.638,13.638,0,0,0-1.361-.287q-.689-.109-1.264-.2t-.959-.167q-.385-.08-.431-.2v-3.6q.046-.161.362-.264a6.547,6.547,0,0,1,.8-.2q.488-.092,1.1-.2a11.373,11.373,0,0,0,1.252-.3,8.377,8.377,0,0,0,1.246-.482,4.429,4.429,0,0,0,1.1-.752ZM65.044,7.565q.057.138.138.3t.184.345q.115.2.276.425.2.276.4.58a3.423,3.423,0,0,1,.3.551.667.667,0,0,1,.063.408q-.04.161-.327.161h-.655A1.041,1.041,0,0,1,65,10.247a1.239,1.239,0,0,1-.373-.264,3.236,3.236,0,0,1-.368-.454q-.19-.276-.408-.655a3.657,3.657,0,0,1-.368-.764,3.908,3.908,0,0,1-.138-.546,1.042,1.042,0,0,1,0-.436,1.607,1.607,0,0,1,.218.046l.253.057q.149.034.345.069t.35.086q.155.04.281.086t.253.092Z" transform="translate(273.078 599.834)"/></g></svg>