<svg xmlns="http://www.w3.org/2000/svg" xmlns:xlink="http://www.w3.org/1999/xlink" width="20" height="20" viewBox="0 0 20 20"><defs><style>.a{fill:url(#a);}.b{fill:#b8bbc4;}.c,.e{fill:none;}.c{stroke:#aeb1b7;stroke-miterlimit:10;stroke-width:0.25px;}.d{fill:url(#b);}</style><linearGradient id="a" x1="1.052" y1="0.216" x2="0.108" y2="0.702" gradientUnits="objectBoundingBox"><stop offset="0"/><stop offset="0.124" stop-color="#090909"/><stop offset="0.329" stop-color="#222"/><stop offset="0.439" stop-color="#333"/><stop offset="0.76" stop-color="#171717"/><stop offset="0.994"/></linearGradient><linearGradient id="b" x1="0.3" y1="0.05" x2="0.793" y2="0.777" gradientUnits="objectBoundingBox"><stop offset="0" stop-color="#333"/><stop offset="0.574" stop-color="#171717"/><stop offset="0.994"/></linearGradient></defs><g transform="translate(5.063 2.283)"><path d="M311.428,665.277l3.043,4.82a2.77,2.77,0,0,0-1.524.425,3.5,3.5,0,1,0,4.819,1.022l-3.41-5.389,2.606.136a.106.106,0,0,0,.095-.165l-1.089-1.659a.318.318,0,0,0-.229-.141l-2.81-.322a.32.32,0,0,0-.214.051l-1.191.781A.322.322,0,0,0,311.428,665.277Z" transform="translate(-308.857 -664.002)"/><circle class="a" cx="4.791" cy="4.791" r="4.791" transform="translate(0 5.261)"/><circle class="b" cx="2.857" cy="2.857" r="2.857" transform="translate(1.934 7.195)"/><circle class="c" cx="2.389" cy="2.389" r="2.389" transform="translate(2.402 7.663)"/><circle class="c" cx="2.127" cy="2.127" r="2.127" transform="translate(2.665 7.925)"/><circle class="c" cx="1.889" cy="1.889" r="1.889" transform="translate(2.903 8.163)"/><circle class="c" cx="1.647" cy="1.647" r="1.647" transform="translate(3.144 8.405)"/><circle class="d" cx="1.335" cy="1.335" r="1.335" transform="translate(3.456 8.716)"/></g><rect class="e" width="20" height="20"/></svg>