<svg xmlns="http://www.w3.org/2000/svg" xmlns:xlink="http://www.w3.org/1999/xlink" width="20" height="20" viewBox="0 0 20 20"><defs><style>.a{fill:none;}.b{fill:#ffce30;}.c{fill:#fff;}.d{fill:url(#a);}</style><linearGradient id="a" x1="0.417" y1="0.115" x2="0.645" y2="0.99" gradientUnits="objectBoundingBox"><stop offset="0" stop-color="#4ddf5d"/><stop offset="0.294" stop-color="#48d55d"/><stop offset="0.781" stop-color="#3cbc5d"/><stop offset="0.994" stop-color="#36af5d"/></linearGradient></defs><g transform="translate(0.054)"><rect class="a" width="20" height="20" transform="translate(-0.054)"/><g transform="translate(0.456 3.296)"><g transform="translate(9.517 3.727)"><path class="b" d="M139.731,675.333c-2.593-.709-5.176.476-5.769,2.645s1.029,4.5,3.622,5.212h0l-.382,1.4,1.869-1.2a4.223,4.223,0,0,0,4.282-2.849C143.946,678.375,142.325,676.042,139.731,675.333Z" transform="translate(-133.84 -675.128)"/><circle class="c" cx="0.738" cy="0.738" r="0.738" transform="translate(2.682 2.889)"/><circle class="c" cx="0.738" cy="0.738" r="0.738" transform="translate(5.814 4.029)"/></g><g transform="translate(0 0)"><path class="d" d="M118.99,667.5c-3.5.849-5.763,3.911-5.053,6.84.573,2.363,2.906,3.915,5.623,3.982L122.018,680l-.458-1.888c3.5-.849,5.763-3.911,5.053-6.84S122.49,666.653,118.99,667.5Z" transform="translate(-113.807 -667.282)"/><circle class="c" cx="0.916" cy="0.916" r="0.916" transform="translate(3.511 4.702)"/><circle class="c" cx="0.916" cy="0.916" r="0.916" transform="translate(7.531 3.727)"/></g></g></g></svg>