<svg xmlns="http://www.w3.org/2000/svg" xmlns:xlink="http://www.w3.org/1999/xlink" width="137.193" height="28" viewBox="0 0 137.193 28"><defs><style>.a{opacity:0.5;}.b,.c,.d{fill-rule:evenodd;}.c{fill:url(#a);}.d{fill:url(#b);}</style><linearGradient id="a" x1="-0.267" y1="0.693" x2="0.807" y2="0.45" gradientUnits="objectBoundingBox"><stop offset="0" stop-color="#fff"/><stop offset="0.878" stop-color="#727fff"/></linearGradient><linearGradient id="b" x1="0.102" y1="0.665" x2="1.103" y2="0.136" gradientUnits="objectBoundingBox"><stop offset="0" stop-color="#fff"/><stop offset="0.833" stop-color="#727fff"/></linearGradient></defs><g class="a" transform="translate(36.871 23.028)"><path class="b" d="M3.242,0,3.9,4.26H2.934L2.807,3.223H1.433L.929,4.26H0L2.146,0ZM2.566.874,2.75,2.534H1.732L2.513.874Z" transform="translate(0 0.079)"/><path class="b" d="M3.474.469A1.428,1.428,0,0,1,3.8,1a2.011,2.011,0,0,1,.109.679c0,.055,0,.121-.007.2s-.011.148-.021.219c0,.016-.007.046-.014.087s-.014.087-.023.132-.016.089-.025.13-.014.068-.018.084a2.328,2.328,0,0,1-.276.727,1.864,1.864,0,0,1-.485.547,2.143,2.143,0,0,1-.683.344,2.967,2.967,0,0,1-.87.118H0L.749,0H2.235a1.941,1.941,0,0,1,.718.123A1.424,1.424,0,0,1,3.474.469ZM2.921,2.242c-.009.041-.016.08-.025.116a.587.587,0,0,0-.011.073,1.468,1.468,0,0,1-.2.478,1.177,1.177,0,0,1-.323.33,1.307,1.307,0,0,1-.433.191,2.108,2.108,0,0,1-.519.062H1.033l.5-2.725h.408A1.617,1.617,0,0,1,2.359.82a.863.863,0,0,1,.328.169.766.766,0,0,1,.212.3,1.128,1.128,0,0,1,.075.435c0,.041,0,.093,0,.155a1.684,1.684,0,0,1-.014.169c0,.016-.007.043-.011.082S2.93,2.2,2.921,2.242Z" transform="translate(18.831 0.079)"/><path class="b" d="M.749,0h.9l-.3,1.7H3.069l.3-1.7h.909L3.524,4.26h-.9l.308-1.781H1.228L.9,4.26H0Z" transform="translate(37.461 0.079)"/><path class="b" d="M1.362.109A2.126,2.126,0,0,1,2.057,0a2.13,2.13,0,0,1,.708.114,1.626,1.626,0,0,1,.556.328,1.445,1.445,0,0,1,.36.524,1.781,1.781,0,0,1,.128.7c0,.066,0,.141-.007.228a2.16,2.16,0,0,1-.032.262l-.112.615a2.493,2.493,0,0,1-.232.695,1.789,1.789,0,0,1-.4.519,1.715,1.715,0,0,1-.572.321,2.225,2.225,0,0,1-.734.112,2.085,2.085,0,0,1-.688-.109,1.528,1.528,0,0,1-.544-.319A1.453,1.453,0,0,1,.13,3.476,1.72,1.72,0,0,1,0,2.791c0-.082,0-.171,0-.264a2.064,2.064,0,0,1,.032-.269l.112-.615a2.322,2.322,0,0,1,.237-.7A1.81,1.81,0,0,1,.8.428,1.723,1.723,0,0,1,1.362.109ZM1.188,1.336a1.093,1.093,0,0,1,.219-.319.765.765,0,0,1,.282-.18A.937.937,0,0,1,2.022.778a.939.939,0,0,1,.371.068.753.753,0,0,1,.276.185.785.785,0,0,1,.169.287A1.078,1.078,0,0,1,2.9,1.68c0,.018,0,.043,0,.073s0,.064,0,.1,0,.068-.007.1-.009.073-.014.1l-.1.513a1.485,1.485,0,0,1-.351.8.842.842,0,0,1-.629.257.97.97,0,0,1-.376-.068.758.758,0,0,1-.276-.187.78.78,0,0,1-.171-.289,1.134,1.134,0,0,1-.057-.371A1.573,1.573,0,0,1,.926,2.5c.007-.068.016-.137.03-.207l.089-.49A1.916,1.916,0,0,1,1.188,1.336Z" transform="translate(56.461 0)"/><path class="b" d="M1.037,3.467H2.8l-.134.793H0L.749,0h.9Z" transform="translate(74.992 0.079)"/><path class="b" d="M.13,3.476A1.72,1.72,0,0,1,0,2.791c0-.082,0-.171.007-.264a1.5,1.5,0,0,1,.032-.269L.15,1.643a2.259,2.259,0,0,1,.235-.7A1.81,1.81,0,0,1,.8.428,1.723,1.723,0,0,1,1.362.109,2.136,2.136,0,0,1,2.057,0a2.153,2.153,0,0,1,.711.114,1.638,1.638,0,0,1,.554.328,1.479,1.479,0,0,1,.362.524,1.823,1.823,0,0,1,.128.7c0,.066,0,.141-.009.228a2.16,2.16,0,0,1-.032.262l-.112.615a2.493,2.493,0,0,1-.232.695,1.751,1.751,0,0,1-.4.519,1.715,1.715,0,0,1-.572.321,2.225,2.225,0,0,1-.734.112,2.1,2.1,0,0,1-.688-.109,1.548,1.548,0,0,1-.544-.319A1.453,1.453,0,0,1,.13,3.476ZM2.9,1.68c0,.018,0,.043,0,.073s0,.064,0,.1,0,.068-.007.1-.009.073-.014.1l-.093.513a1.52,1.52,0,0,1-.351.8.849.849,0,0,1-.629.257.974.974,0,0,1-.378-.068.758.758,0,0,1-.276-.187.78.78,0,0,1-.171-.289,1.134,1.134,0,0,1-.057-.371A2.078,2.078,0,0,1,.926,2.5c.007-.068.016-.137.03-.207l.091-.49a1.824,1.824,0,0,1,.141-.467,1.093,1.093,0,0,1,.219-.319.765.765,0,0,1,.282-.18A.937.937,0,0,1,2.022.778a.939.939,0,0,1,.371.068.753.753,0,0,1,.276.185.789.789,0,0,1,.171.287A1.079,1.079,0,0,1,2.9,1.68Z" transform="translate(92.784 0)"/></g><g transform="translate(87.715 0.57)"><path class="b" d="M.231,2.107a.229.229,0,0,1-.226-.271L.3.189A.232.232,0,0,1,.532,0H3.521a.231.231,0,0,1,.228.271l-.3,1.647a.234.234,0,0,1-.228.189Z" transform="translate(13.43 6.941)"/><path class="b" d="M.3.189A.232.232,0,0,1,.532,0H3.521a.23.23,0,0,1,.228.271l-.3,1.647a.228.228,0,0,1-.226.189H.231a.229.229,0,0,1-.226-.271Z" transform="translate(12.388 12.851)"/><path class="b" d="M17.483,3a.23.23,0,0,0,.228-.189L18,1.16a.232.232,0,0,0-.228-.271H5.45L5.842,0,3.388,0a.232.232,0,0,0-.212.139L1.213,4.574a.229.229,0,0,0,.21.323h.834a.229.229,0,0,1,.226.271L1.693,9.643a.232.232,0,0,1-.228.191H.545a.232.232,0,0,0-.228.189L.008,11.8a.228.228,0,0,0,.226.269H.992a.231.231,0,0,1,.228.271L.267,17.73a.153.153,0,0,0,.15.18l10.8,0-.089.5-.984,1.18a.23.23,0,0,0,.175.378H12.6a.233.233,0,0,0,.178-.084l.845-1.016a.244.244,0,0,0,.05-.107l.15-.85h1.062a.232.232,0,0,0,.228-.189l.289-1.647a.23.23,0,0,0-.226-.271h-.706a.23.23,0,0,1-.228-.271l.579-3.278a.23.23,0,0,1,.226-.191h.87a.232.232,0,0,0,.228-.189l.31-1.77a.23.23,0,0,0-.226-.271h-.706a.231.231,0,0,1-.228-.271l.936-5.308A.228.228,0,0,0,16,3.987L4.083,3.973l.371-.841A.233.233,0,0,1,4.664,3ZM4.538,9.835h7.91a.23.23,0,0,0,.226-.191l.579-3.28a.229.229,0,0,0-.226-.269H5.117a.232.232,0,0,0-.228.189l-.576,3.28A.229.229,0,0,0,4.538,9.835Zm6.856,5.971H3.485a.23.23,0,0,1-.226-.271l.576-3.278a.232.232,0,0,1,.228-.191h7.91a.23.23,0,0,1,.226.271l-.579,3.278A.228.228,0,0,1,11.394,15.806Z" transform="translate(6.514)"/><path class="b" d="M1.077,4.529.006.287A.23.23,0,0,1,.229,0H2.476A.229.229,0,0,1,2.7.175l1.071,4.24a.228.228,0,0,1-.223.287H1.3A.229.229,0,0,1,1.077,4.529Z" transform="translate(28.577 0.003)"/><path class="b" d="M.006.287A.23.23,0,0,1,.229,0H2.476A.229.229,0,0,1,2.7.175l1.073,4.24a.232.232,0,0,1-.223.287H1.3a.231.231,0,0,1-.223-.173Z" transform="translate(27.512 6.043)"/><path class="b" d="M3.524,0H5.741a.231.231,0,0,1,.21.326L2.657,7.618a.227.227,0,0,1-.21.137H.23a.231.231,0,0,1-.21-.326L3.315.134A.228.228,0,0,1,3.524,0Z" transform="translate(24.813 12.215)"/><path class="b" d="M0,.269A.231.231,0,0,1,.227,0H2.5a.23.23,0,0,1,.226.194L3.435,4.4a.23.23,0,0,1-.221.269L.947,4.713a.229.229,0,0,1-.23-.191Z" transform="translate(3.692)"/><path class="b" d="M.94,4.715a.231.231,0,0,1-.232-.191L0,.31A.23.23,0,0,1,.223.043L2.487,0a.231.231,0,0,1,.232.191l.708,4.214a.231.231,0,0,1-.223.269Z" transform="translate(2.609 6.188)"/><path class="b" d="M.23,7.755a.23.23,0,0,1-.212-.319L3.078.141A.235.235,0,0,1,3.292,0H5.513a.23.23,0,0,1,.212.319L2.665,7.613a.234.234,0,0,1-.212.141Z" transform="translate(0 12.215)"/><path class="b" d="M5.971,2.495a.231.231,0,0,0-.226.191L3.183,17.22a.229.229,0,0,0,.228.269H14.988a.231.231,0,0,1,.228.271l-.355,2.018a.232.232,0,0,1-.228.191H.153A.153.153,0,0,1,0,19.79L3.458.194A.23.23,0,0,1,3.684,0L18.07,0A.232.232,0,0,1,18.3.271L17.94,2.3a.228.228,0,0,1-.226.191Z" transform="translate(31.178)"/></g><path class="c" d="M13.621,22.407l3.914,0a.631.631,0,0,0,.474-1.048L9.937,12.183a.632.632,0,0,0-1.1.3L6.085,27.351A.787.787,0,0,1,5.31,28H0L5.183,0,29.845,28H12.88a.787.787,0,0,1-.775-.932l.738-4.009A.789.789,0,0,1,13.621,22.407Z" transform="translate(0 0.004)"/><path class="d" d="M16.632,5.335,12.86,1.055A.632.632,0,0,1,13.334,0l16.5,0L24.663,28,0,0,5.611,0A.787.787,0,0,1,6.2.269L19.89,15.828a.631.631,0,0,0,1.093-.3L22.69,6.358a.634.634,0,0,0-.62-.747L17.225,5.6A.793.793,0,0,1,16.632,5.335Z" transform="translate(5.183)"/><g transform="translate(38.736 0.57)"><path class="b" d="M1.614.164A.234.234,0,0,1,1.829,0h2.03a.155.155,0,0,1,.15.21L2.4,5.663a.234.234,0,0,1-.214.164H.159a.154.154,0,0,1-.148-.21Z" transform="translate(-0.002 14.096)"/><path class="b" d="M2.726.164,2.409,5.618a.233.233,0,0,1-.223.21H.156A.152.152,0,0,1,0,5.663L.318.21A.233.233,0,0,1,.541,0h2.03A.15.15,0,0,1,2.726.164Z" transform="translate(8.894 14.096)"/><path class="b" d="M7.759.189l-.148.843h4.627a.152.152,0,0,1,.153.187l-.358,2.032a.233.233,0,0,1-.221.187H.155A.153.153,0,0,1,0,3.251L.36,1.219a.231.231,0,0,1,.219-.187H5.205L5.354.189A.233.233,0,0,1,5.575,0H7.607A.152.152,0,0,1,7.759.189Z" transform="translate(2.541)"/><path class="b" d="M6.839,7.219H4.431L2.408,18.705a.237.237,0,0,1-.221.187H.155A.154.154,0,0,1,0,18.705L3.265.191A.231.231,0,0,1,3.486,0H4.5a.054.054,0,0,1,.018,0h6.5a.152.152,0,0,1,.153.187l-.358,2.032a.231.231,0,0,1-.221.187H5.281L4.857,4.814H10.17A.154.154,0,0,1,10.325,5L9.967,7.032a.237.237,0,0,1-.221.187h-.5L7.22,18.705A.233.233,0,0,1,7,18.892H4.969a.153.153,0,0,1-.155-.187Z" transform="translate(13.042 1.031)"/><path class="b" d="M13,3.438H5.68L5.248,4.47h7.57a.151.151,0,0,1,.153.187l-.121.688-.237,1.344L12.3,8.449l-.36,2.032a.231.231,0,0,1-.219.187H7.337a.153.153,0,0,1-.155-.187l.358-2.032a.237.237,0,0,1,.221-.187H9.929l.244-1.387H4.243L2.728,10.5a.232.232,0,0,1-.207.144H.156a.156.156,0,0,1-.141-.23L2.928,3.438H1.341a.154.154,0,0,1-.155-.187l.36-2.032a.231.231,0,0,1,.221-.187H6.421L6.569.187A.233.233,0,0,1,6.79,0H8.822a.152.152,0,0,1,.153.187l-.148.845h4.6a.153.153,0,0,1,.155.187l-.36,2.032A.233.233,0,0,1,13,3.438Z" transform="translate(33.735 9.283)"/><path class="b" d="M.008,15.24,3,.185A.235.235,0,0,1,3.218,0H4.7a.152.152,0,0,1,.153.191L1.862,15.25a.235.235,0,0,1-.219.182H.16A.153.153,0,0,1,.008,15.24Z" transform="translate(24.385 4.492)"/><path class="b" d="M.157,15.432A.152.152,0,0,1,0,15.25L2.321.191A.233.233,0,0,1,2.542,0H4.094a.154.154,0,0,1,.155.185L1.929,15.24a.233.233,0,0,1-.221.191Z" transform="translate(30.706 4.492)"/><path class="b" d="M8.457,1.032a.154.154,0,0,1,.155.187l-.36,2.032a.233.233,0,0,1-.221.187H5.3l-2.873,16.3a.235.235,0,0,1-.221.189H.171a.154.154,0,0,1-.155-.189l2.875-16.3H.155A.154.154,0,0,1,0,3.251L.36,1.219a.233.233,0,0,1,.219-.187H3.315L3.463.189A.235.235,0,0,1,3.684,0H5.716a.152.152,0,0,1,.153.189l-.148.843Z" transform="translate(27.293)"/><path class="b" d="M12.418,4.281a.235.235,0,0,1-.221.189H7.57l-.3,1.718H11.55a.154.154,0,0,1,.155.187l-.36,2.032a.23.23,0,0,1-.219.187H6.844L5.668,15.265a.235.235,0,0,1-.221.189H3.415a.155.155,0,0,1-.155-.189L4.438,8.593H.155A.153.153,0,0,1,0,8.406L.36,6.374a.233.233,0,0,1,.219-.187H4.862l.3-1.718H.538a.153.153,0,0,1-.153-.189L.743,2.248a.233.233,0,0,1,.221-.187H2.821L2.552.244A.226.226,0,0,1,2.773,0H4.784a.152.152,0,0,1,.157.128l.287,1.934H8.3L9.324.125A.23.23,0,0,1,9.523,0h2.009a.159.159,0,0,1,.134.248l-.955,1.813h1.909a.154.154,0,0,1,.155.187Z" transform="translate(1.187 4.47)"/><path class="b" d="M11.812,3.438H.155A.153.153,0,0,1,0,3.251L.36,1.219a.231.231,0,0,1,.219-.187H5.205L5.354.189A.233.233,0,0,1,5.575,0H7.607a.153.153,0,0,1,.153.189l-.148.843h4.625a.153.153,0,0,1,.155.187l-.358,2.032A.233.233,0,0,1,11.812,3.438Z" transform="translate(36.558)"/><path class="b" d="M11.279.246,10.7,1.374h1.715a.154.154,0,0,1,.155.189l-.166.945-.191,1.087-.182,1.03a.233.233,0,0,1-.221.189H9.78a.153.153,0,0,1-.153-.189l.148-.843H2.488l-.148.843a.237.237,0,0,1-.223.189H.155A.154.154,0,0,1,0,4.625l.182-1.03L.374,2.508.54,1.563a.233.233,0,0,1,.221-.189H2.515L2.267.257A.225.225,0,0,1,2.485,0h2a.152.152,0,0,1,.153.118l.282,1.255H8.3L8.932.128A.232.232,0,0,1,9.133,0h2.012A.159.159,0,0,1,11.279.246Z" transform="translate(35.528 4.47)"/></g></svg>