<svg xmlns="http://www.w3.org/2000/svg" width="16" height="16" viewBox="0 0 16 16"><defs><style>.a{fill:#727fff;opacity:0;}.b,.c{fill:#fff;}.c{opacity:0.3;}.d,.e{fill:#889191;}.e{opacity:0.68;}</style></defs><g transform="translate(-50 -106)"><rect class="a" width="16" height="16" transform="translate(50 106)"/><path class="b" d="M-17570.287,7312.866c-.828,0-1.5-.382-1.5-.851,0-.232.758-.353,1.5-.353s1.508.121,1.508.353C-17568.779,7312.484-17569.457,7312.866-17570.287,7312.866Z" transform="translate(17628.281 -7200.416)"/><path class="c" d="M4.43,2.581V.01C4.541,0,4.654,0,4.768,0a5.659,5.659,0,0,1,3.5,1.208v.6a.724.724,0,0,1-.768.77ZM0,2.581A5.692,5.692,0,0,1,3.66.107V2.581Z" transform="translate(56.546 119.154)"/><path class="d" d="M40.7,7.8H33.548a3.422,3.422,0,0,0-3.422,3.422V13.5A1.373,1.373,0,0,0,31.5,14.871H42.752A1.373,1.373,0,0,0,44.121,13.5v-2.28A3.422,3.422,0,0,0,40.7,7.8Zm-3.575-.368Z" transform="translate(20.877 106.584)"/><path class="e" d="M37.124,7.432a3.716,3.716,0,1,0-3.715-3.716A3.716,3.716,0,0,0,37.124,7.432Zm1.507-2.418c0,.47-.675.851-1.507.851s-1.507-.381-1.507-.851S38.631,4.544,38.631,5.014Z" transform="translate(20.876 106.584)"/></g></svg>