<svg xmlns="http://www.w3.org/2000/svg" width="20" height="20" viewBox="0 0 20 20"><defs><style>.a,.b{fill:#889191;}.b{stroke:#fff;stroke-miterlimit:10;}.c{fill:none;}.d{stroke:none;}</style></defs><g transform="translate(-617 -1330)"><g transform="translate(618.7 1333.227)"><path class="a" d="M219.579,676.622a1.621,1.621,0,0,1,.541.719,2.1,2.1,0,0,1,.128.875,3.141,3.141,0,0,1-.2.911,3.431,3.431,0,0,1-.441.825,5.45,5.45,0,0,1-1.1,1.139,7.106,7.106,0,0,1-1.267.782,7.652,7.652,0,0,1-1.316.491,10.856,10.856,0,0,1-1.245.263q-.583.086-1.046.107t-.719.021q-.256,0-.683-.035a8.052,8.052,0,0,1-.946-.143,9.213,9.213,0,0,1-1.089-.3,6.149,6.149,0,0,1-1.11-.505A5.768,5.768,0,0,1,208.06,681a4.128,4.128,0,0,1-.832-1.1,2.744,2.744,0,0,1-.306-.883,7.5,7.5,0,0,1-.078-1.2,2.79,2.79,0,0,1,.107-.712,3.942,3.942,0,0,1,.377-.882,7.268,7.268,0,0,1,.74-1.053,13.941,13.941,0,0,1,1.2-1.252,12.109,12.109,0,0,1,1.473-1.188,6.427,6.427,0,0,1,1.629-.8,2.852,2.852,0,0,1,.883-.157,1.553,1.553,0,0,1,.8.157c.094.1.185.211.27.32a.9.9,0,0,1,.171.406.957.957,0,0,1,.007.384c-.023.124-.05.247-.078.37s-.053.242-.072.356a.574.574,0,0,0,.029.313,1.4,1.4,0,0,0,.47-.021,3.338,3.338,0,0,0,.441-.128q.213-.078.434-.164a2.477,2.477,0,0,1,.462-.128,3.785,3.785,0,0,1,.761-.064,2.319,2.319,0,0,1,.683.107,1.21,1.21,0,0,1,.505.306.917.917,0,0,1,.242.534.8.8,0,0,1-.029.37c-.038.114-.078.221-.121.32a1.769,1.769,0,0,0-.1.306.6.6,0,0,0,.021.327.424.424,0,0,0,.206.185q.164.086.377.171t.448.185a1.924,1.924,0,0,1,.406.227Z" transform="translate(-206.843 -668.452)"/><path class="a" d="M233.854,665.069a6.566,6.566,0,0,1,1.857.633,4.861,4.861,0,0,1,1.4,1.083,3.777,3.777,0,0,1,.8,1.455,3.706,3.706,0,0,1,.061,1.749.975.975,0,0,1-.354.65.706.706,0,0,1-.527.147.69.69,0,0,1-.445-.287.813.813,0,0,1-.106-.664,2.044,2.044,0,0,0-.107-1.121,3.205,3.205,0,0,0-.645-1.034,4.08,4.08,0,0,0-1.041-.812,4.216,4.216,0,0,0-1.28-.466.892.892,0,0,1-.6-.331.611.611,0,0,1-.107-.506.671.671,0,0,1,.347-.419,1.071,1.071,0,0,1,.745-.076Z" transform="translate(-221.117 -665.038)"/><path class="a" d="M231.012,670.611a2.4,2.4,0,0,1,2.139,3.17.985.985,0,0,1-.252.568.343.343,0,0,1-.336.1.478.478,0,0,1-.27-.261.8.8,0,0,1-.047-.516,1.837,1.837,0,0,0-.227-1.4,1.721,1.721,0,0,0-1.18-.73.5.5,0,0,1-.364-.221.484.484,0,0,1-.067-.338.472.472,0,0,1,.192-.29A.5.5,0,0,1,231.012,670.611Z" transform="translate(-219.271 -668.193)"/><g transform="translate(3.216 7.629)"><g class="b"><circle class="d" cx="1.66" cy="1.66" r="1.66"/><circle class="c" cx="1.66" cy="1.66" r="2.16"/></g><circle class="a" cx="0.434" cy="0.434" r="0.434" transform="translate(0.464 1.225)"/></g></g><rect class="c" width="20" height="20" transform="translate(617 1330)"/></g></svg>