<svg xmlns="http://www.w3.org/2000/svg" width="16" height="16" viewBox="0 0 16 16"><defs><style>.a{fill:#727fff;opacity:0;}.b{fill:#fff;}.c,.d{fill:#889191;}.c{opacity:0.68;}</style></defs><g transform="translate(-50 -106)"><rect class="a" width="16" height="16" transform="translate(50 106)"/><g transform="translate(-76.771 -3.846)"><rect class="b" width="9" height="10" transform="translate(129.771 114.846)"/><path class="c" d="M127.865,112.6l.073-.083a8.162,8.162,0,0,1,.584-.692q.306-.324.464-.476a3.219,3.219,0,0,1,.465-.346,1.257,1.257,0,0,1,.662-.151h5.634a1.806,1.806,0,0,1,.593.119,1.584,1.584,0,0,1,.652.487q.158.219.415.541t.494.627a.481.481,0,0,1-.336.778h-9.382a.484.484,0,0,1-.317-.8Z" transform="translate(1.529 0.087)"/><path class="d" d="M146.292,314.036H134.3a.756.756,0,0,1-.756-.755v-9.293a.756.756,0,0,1,.756-.756h11.99a.756.756,0,0,1,.756.756v9.293A.756.756,0,0,1,146.292,314.036Zm-8.852-2.312a.511.511,0,1,0,0,1.021h5.615a.511.511,0,1,0,0-1.021Zm2.808-7.208a1.745,1.745,0,0,0-1.757,1.73,1.611,1.611,0,0,0,.633,1.3c.536.529.536.622.536,1.01v.055c0,.849-1.417,1.538-2.342,1.538a.384.384,0,0,0-.391.385V311a.215.215,0,0,0,.215.214h6.207a.215.215,0,0,0,.214-.214v-.465a.384.384,0,0,0-.1-.28.4.4,0,0,0-.289-.1c-.925,0-2.342-.689-2.342-1.538v-.1c0-.341.055-.44.537-.962a1.613,1.613,0,0,0,.639-1.3,1.745,1.745,0,0,0-1.76-1.733Z" transform="translate(-5.775 -188.979)"/></g></g></svg>