<svg xmlns="http://www.w3.org/2000/svg" width="22" height="22" viewBox="0 0 22 22"><defs><style>.a,.b{fill:none;}.b{stroke:#889191;}</style></defs><g transform="translate(-756.58 -1661.732)"><g transform="translate(756.253 1661.732)"><rect class="a" width="22" height="22" transform="translate(0.327)"/></g><path class="b" d="M93.347,127.511a4.118,4.118,0,0,0-.9-1.311,4.209,4.209,0,0,0-2.951-1.2,4.229,4.229,0,0,0-2.2.617,4.132,4.132,0,0,0-.451.318,4.133,4.133,0,0,0-.451-.318,4.245,4.245,0,0,0-3.825-.3,4.177,4.177,0,0,0-1.33.879A4.086,4.086,0,0,0,80,129.124a4.581,4.581,0,0,0,.321,1.635,7.327,7.327,0,0,0,.763,1.441,13.888,13.888,0,0,0,2.12,2.4,23.7,23.7,0,0,0,2.986,2.332l.375.241a.508.508,0,0,0,.546,0l.375-.241a24,24,0,0,0,2.986-2.332,13.888,13.888,0,0,0,2.12-2.4,7.241,7.241,0,0,0,.763-1.441,4.581,4.581,0,0,0,.321-1.635A4.031,4.031,0,0,0,93.347,127.511Z" transform="translate(680.81 1541.536)"/></g></svg>