<svg xmlns="http://www.w3.org/2000/svg" width="14" height="14" viewBox="0 0 14 14"><defs><style>.a{opacity:0.9;}.b,.c{fill:#fff;}.b{opacity:0;}</style></defs><g class="a" transform="translate(-296.876 -860.94)"><rect class="b" width="14" height="14" transform="translate(296.876 860.94)"/><path class="c" d="M53.671,176.8a1.874,1.874,0,0,0-1.88-1.868H44.547a1.874,1.874,0,0,0-1.88,1.868v6.282a1.874,1.874,0,0,0,1.88,1.869h7.244a1.874,1.874,0,0,0,1.88-1.868.209.209,0,0,1,.269-.2l1.587.473a.761.761,0,0,0,.978-.729v-5.4a.761.761,0,0,0-.978-.729l-1.615.481a.187.187,0,0,1-.24-.179Zm-7.01,4.8v-3.259a.761.761,0,0,1,1.168-.643l2.573,1.629a.761.761,0,0,1,0,1.286l-2.573,1.63a.761.761,0,0,1-1.168-.643Z" transform="translate(254.318 687.591)"/></g></svg>